<svg width="40" height="40" viewBox="0 0 40 40" fill="none" xmlns="http://www.w3.org/2000/svg">
<path d="M28.1832 1.75383C24.5784 0.146521 20.5782 -0.35651 16.6877 0.308222C12.7971 0.972954 9.19085 2.77563 6.32422 5.48865C3.4576 8.20166 1.45921 11.7033 0.581424 15.5514C-0.296358 19.3994 -0.0141611 23.4213 1.39238 27.1091C2.79891 30.7968 5.26671 33.9851 8.4841 36.2712C11.7015 38.5573 15.5242 39.8388 19.4694 39.9537C23.4146 40.0686 27.3054 39.0119 30.6505 36.917C33.9955 34.822 36.6447 31.7828 38.2635 28.1832C39.3413 25.7866 39.9355 23.2008 40.0121 20.5741C40.0886 17.9474 39.6459 15.3314 38.7095 12.8761C37.773 10.4208 36.3611 8.17449 34.5548 6.2659C32.7485 4.35731 30.5833 2.82397 28.1832 1.75383ZM20.0304 29.2772L8.83005 18.0855L13.4317 13.4925L19.6484 19.7178L26.1081 13.2147L31.0745 18.181L20.0304 29.2772Z" fill="#FDC629"/>
</svg>
