<svg width="352" height="632" viewBox="0 0 352 632" fill="none" xmlns="http://www.w3.org/2000/svg">
<g clip-path="url(#clip0_625_757)">
<path d="M34.7953 515.093L30.9778 515.509L31.3867 519.267L35.2041 518.851L34.7953 515.093Z" fill="#1A1A1A"/>
<path d="M34.3897 511.32L30.5723 511.735L30.9822 515.503L34.7997 515.088L34.3897 511.32Z" fill="#1A1A1A"/>
<path d="M33.9854 507.565L30.168 507.981L30.5769 511.738L34.3943 511.323L33.9854 507.565Z" fill="#1A1A1A"/>
<path d="M31.3862 519.268L27.6284 519.677L28.0384 523.444L31.7962 523.036L31.3862 519.268Z" fill="#1A1A1A"/>
<path d="M30.9819 515.504L27.2241 515.913L27.633 519.671L31.3908 519.262L30.9819 515.504Z" fill="#1A1A1A"/>
<path d="M30.1721 507.976L26.4143 508.385L26.8232 512.143L30.581 511.734L30.1721 507.976Z" fill="#1A1A1A"/>
<path d="M29.7578 504.212L26 504.621L26.41 508.389L30.1678 507.98L29.7578 504.212Z" fill="#1A1A1A"/>
<path d="M28.0468 523.435L24.2791 523.845L24.6944 527.662L28.4622 527.252L28.0468 523.435Z" fill="#1A1A1A"/>
<path d="M27.6425 519.671L23.8748 520.081L24.2847 523.849L28.0525 523.439L27.6425 519.671Z" fill="#1A1A1A"/>
<path d="M27.2282 515.917L23.4604 516.327L23.8693 520.085L27.6371 519.675L27.2282 515.917Z" fill="#1A1A1A"/>
<path d="M26.8229 512.144L23.0552 512.554L23.4652 516.322L27.2329 515.912L26.8229 512.144Z" fill="#1A1A1A"/>
<path d="M26.4086 508.38L22.6409 508.79L23.0498 512.548L26.8175 512.138L26.4086 508.38Z" fill="#1A1A1A"/>
<path d="M26.0041 504.627L22.2363 505.037L22.6463 508.804L26.4141 508.394L26.0041 504.627Z" fill="#1A1A1A"/>
<path d="M28.1746 519.16L24.4324 519.576L24.8493 523.328L28.5915 522.912L28.1746 519.16Z" fill="#1A1A1A"/>
<path d="M24.2734 523.85L20.5156 524.259L20.931 528.076L24.6888 527.668L24.2734 523.85Z" fill="#1A1A1A"/>
<path d="M23.8691 520.086L20.1113 520.495L20.5213 524.263L24.2791 523.854L23.8691 520.086Z" fill="#1A1A1A"/>
<path d="M23.4548 516.323L19.697 516.732L20.1059 520.49L23.8637 520.081L23.4548 516.323Z" fill="#1A1A1A"/>
<path d="M23.0493 512.559L19.2915 512.968L19.7015 516.736L23.4593 516.327L23.0493 512.559Z" fill="#1A1A1A"/>
<path d="M22.635 508.796L18.8772 509.205L19.2861 512.962L23.0439 512.554L22.635 508.796Z" fill="#1A1A1A"/>
<path d="M21.3449 531.83L17.5771 532.24L17.986 535.998L21.7538 535.588L21.3449 531.83Z" fill="#1A1A1A"/>
<path d="M20.9406 528.077L17.1729 528.487L17.5828 532.254L21.3506 531.844L20.9406 528.077Z" fill="#1A1A1A"/>
<path d="M20.5197 524.254L16.752 524.664L17.1673 528.482L20.9351 528.072L20.5197 524.254Z" fill="#1A1A1A"/>
<path d="M20.1054 520.491L16.3376 520.901L16.7476 524.669L20.5154 524.259L20.1054 520.491Z" fill="#1A1A1A"/>
<path d="M19.7011 516.737L15.9333 517.147L16.3422 520.905L20.11 520.495L19.7011 516.737Z" fill="#1A1A1A"/>
<path d="M19.2858 512.964L15.5181 513.374L15.928 517.141L19.6958 516.731L19.2858 512.964Z" fill="#1A1A1A"/>
<path d="M17.157 528.483L13.3992 528.892L13.8091 532.66L17.567 532.251L17.157 528.483Z" fill="#1A1A1A"/>
<path d="M16.7463 524.67L12.9885 525.079L13.4039 528.896L17.1617 528.487L16.7463 524.67Z" fill="#1A1A1A"/>
<path d="M16.3421 520.906L12.5842 521.315L12.9942 525.083L16.752 524.674L16.3421 520.906Z" fill="#1A1A1A"/>
<path d="M15.9275 517.143L12.1697 517.552L12.5786 521.309L16.3364 520.9L15.9275 517.143Z" fill="#1A1A1A"/>
<path d="M15.5222 513.379L11.7644 513.788L12.1744 517.556L15.9322 517.147L15.5222 513.379Z" fill="#1A1A1A"/>
<path d="M15.1079 509.616L11.3501 510.024L11.759 513.782L15.5168 513.373L15.1079 509.616Z" fill="#1A1A1A"/>
<path d="M12.9827 525.074L9.22485 525.483L9.64023 529.3L13.3981 528.892L12.9827 525.074Z" fill="#1A1A1A"/>
<path d="M12.5784 521.311L8.82056 521.719L9.23054 525.487L12.9884 525.078L12.5784 521.311Z" fill="#1A1A1A"/>
<path d="M12.1741 517.557L8.41626 517.966L8.82516 521.724L12.583 521.315L12.1741 517.557Z" fill="#1A1A1A"/>
<path d="M11.7586 513.783L8.00073 514.192L8.41071 517.96L12.1685 517.551L11.7586 513.783Z" fill="#1A1A1A"/>
<path d="M11.3543 510.03L7.59644 510.439L8.00533 514.197L11.7632 513.788L11.3543 510.03Z" fill="#1A1A1A"/>
<path d="M10.939 506.256L7.18115 506.665L7.59113 510.433L11.3489 510.024L10.939 506.256Z" fill="#1A1A1A"/>
<path d="M8.82472 521.724L4.99731 522.14L5.40728 525.908L9.23469 525.491L8.82472 521.724Z" fill="#1A1A1A"/>
<path d="M8.42042 517.96L4.59302 518.377L5.00191 522.135L8.82932 521.718L8.42042 517.96Z" fill="#1A1A1A"/>
<path d="M8.0049 514.187L4.17749 514.603L4.58747 518.371L8.41488 517.954L8.0049 514.187Z" fill="#1A1A1A"/>
<path d="M7.6006 510.433L3.77319 510.849L4.18209 514.607L8.0095 514.191L7.6006 510.433Z" fill="#1A1A1A"/>
<path d="M7.18629 506.669L3.35889 507.086L3.76887 510.854L7.59627 510.437L7.18629 506.669Z" fill="#1A1A1A"/>
<path d="M4.58717 518.372L0.829346 518.781L1.23824 522.539L4.99606 522.13L4.58717 518.372Z" fill="#1A1A1A"/>
<path d="M4.18287 514.618L0.425049 515.027L0.835015 518.795L4.59284 518.386L4.18287 514.618Z" fill="#1A1A1A"/>
<path d="M3.76856 510.855L0.0107422 511.264L0.419626 515.022L4.17745 514.613L3.76856 510.855Z" fill="#1A1A1A"/>
<path d="M30.4658 510.694L24.6401 511.328L25.2751 517.163L31.1007 516.53L30.4658 510.694Z" fill="#FDC62B"/>
<path d="M337.438 17.9361L336.759 22.3037L341.196 22.9929L341.875 18.6253L337.438 17.9361Z" fill="#1A1A1A"/>
<path d="M338.114 13.5617L337.434 17.9392L341.871 18.6284L342.551 14.2509L338.114 13.5617Z" fill="#1A1A1A"/>
<path d="M338.799 9.19881L338.12 13.5664L342.557 14.2556L343.235 9.88804L338.799 9.19881Z" fill="#1A1A1A"/>
<path d="M332.384 21.6269L331.704 26.0044L336.071 26.6829L336.751 22.3054L332.384 21.6269Z" fill="#1A1A1A"/>
<path d="M333.068 17.264L332.39 21.6316L336.757 22.3101L337.436 17.9424L333.068 17.264Z" fill="#1A1A1A"/>
<path d="M334.421 8.51692L333.742 12.8845L338.11 13.563L338.788 9.1954L334.421 8.51692Z" fill="#1A1A1A"/>
<path d="M335.097 4.13276L334.417 8.51025L338.785 9.18873L339.465 4.81124L335.097 4.13276Z" fill="#1A1A1A"/>
<path d="M327.337 25.3298L326.648 29.7666L331.026 30.4466L331.715 26.0099L327.337 25.3298Z" fill="#1A1A1A"/>
<path d="M328.009 20.9506L327.329 25.3281L331.707 26.0082L332.387 21.6307L328.009 20.9506Z" fill="#1A1A1A"/>
<path d="M328.686 16.5762L328.007 20.9438L332.385 21.6239L333.063 17.2562L328.686 16.5762Z" fill="#1A1A1A"/>
<path d="M329.372 12.2036L328.692 16.5811L333.069 17.2611L333.749 12.8836L329.372 12.2036Z" fill="#1A1A1A"/>
<path d="M330.046 7.84065L329.368 12.2083L333.745 12.8883L334.424 8.52068L330.046 7.84065Z" fill="#1A1A1A"/>
<path d="M330.724 3.4565L330.044 7.83398L334.422 8.51401L335.102 4.13652L330.724 3.4565Z" fill="#1A1A1A"/>
<path d="M322.272 29.082L321.592 33.4595L325.959 34.138L326.639 29.7605L322.272 29.082Z" fill="#1A1A1A"/>
<path d="M322.953 24.6536L322.264 29.0903L326.631 29.7688L327.321 25.332L322.953 24.6536Z" fill="#1A1A1A"/>
<path d="M325.211 14.2552L324.547 18.6409L328.923 19.3039L329.587 14.9182L325.211 14.2552Z" fill="#1A1A1A"/>
<path d="M324.321 15.9014L323.643 20.269L328.01 20.9475L328.689 16.5799L324.321 15.9014Z" fill="#1A1A1A"/>
<path d="M324.989 11.5173L324.309 15.8948L328.677 16.5732L329.357 12.1957L324.989 11.5173Z" fill="#1A1A1A"/>
<path d="M325.674 7.15462L324.995 11.5222L329.363 12.2007L330.041 7.83309L325.674 7.15462Z" fill="#1A1A1A"/>
<path d="M317.211 32.7886L316.533 37.1562L320.91 37.8363L321.589 33.4686L317.211 32.7886Z" fill="#1A1A1A"/>
<path d="M317.899 28.3959L317.219 32.7734L321.597 33.4534L322.277 29.076L317.899 28.3959Z" fill="#1A1A1A"/>
<path d="M318.58 23.9673L317.891 28.4041L322.269 29.0841L322.958 24.6473L318.58 23.9673Z" fill="#1A1A1A"/>
<path d="M319.264 19.5783L318.584 23.9558L322.962 24.6358L323.642 20.2583L319.264 19.5783Z" fill="#1A1A1A"/>
<path d="M319.938 15.2154L319.26 19.583L323.638 20.263L324.316 15.8954L319.938 15.2154Z" fill="#1A1A1A"/>
<path d="M320.615 10.841L319.935 15.2185L324.312 15.8985L324.992 11.521L320.615 10.841Z" fill="#1A1A1A"/>
<path d="M313.525 27.7297L312.845 32.1072L317.222 32.7872L317.902 28.4097L313.525 27.7297Z" fill="#1A1A1A"/>
<path d="M314.206 23.291L313.517 27.7278L317.894 28.4078L318.584 23.971L314.206 23.291Z" fill="#1A1A1A"/>
<path d="M314.89 18.9121L314.21 23.2896L318.587 23.9696L319.267 19.5921L314.89 18.9121Z" fill="#1A1A1A"/>
<path d="M315.564 14.5491L314.886 18.9167L319.263 19.5968L319.942 15.2291L315.564 14.5491Z" fill="#1A1A1A"/>
<path d="M316.242 10.155L315.562 14.5325L319.939 15.2125L320.619 10.835L316.242 10.155Z" fill="#1A1A1A"/>
<path d="M316.927 5.79207L316.248 10.1597L320.626 10.8397L321.304 6.47208L316.927 5.79207Z" fill="#1A1A1A"/>
<path d="M309.833 22.615L309.144 27.0518L313.512 27.7302L314.201 23.2935L309.833 22.615Z" fill="#1A1A1A"/>
<path d="M310.517 18.2258L309.837 22.6033L314.205 23.2818L314.885 18.9043L310.517 18.2258Z" fill="#1A1A1A"/>
<path d="M311.191 13.8628L310.513 18.2305L314.881 18.909L315.559 14.5413L311.191 13.8628Z" fill="#1A1A1A"/>
<path d="M311.879 9.48018L311.199 13.8577L315.567 14.5362L316.247 10.1587L311.879 9.48018Z" fill="#1A1A1A"/>
<path d="M312.554 5.11577L311.875 9.4834L316.243 10.1619L316.922 5.79426L312.554 5.11577Z" fill="#1A1A1A"/>
<path d="M313.23 0.743116L312.55 5.12061L316.918 5.7991L317.598 1.42161L313.23 0.743116Z" fill="#1A1A1A"/>
<path d="M307.7 11.576L307.035 15.9617L311.49 16.6367L312.155 12.251L307.7 11.576Z" fill="#1A1A1A"/>
<path d="M306.753 13.18L306.075 17.5476L310.521 18.2384L311.2 13.8707L306.753 13.18Z" fill="#1A1A1A"/>
<path d="M307.421 8.78581L306.741 13.1633L311.188 13.8541L311.868 9.47658L307.421 8.78581Z" fill="#1A1A1A"/>
<path d="M308.106 4.42317L307.427 8.79077L311.874 9.48154L312.552 5.11394L308.106 4.42317Z" fill="#1A1A1A"/>
<path d="M308.793 0.0404797L308.113 4.41797L312.56 5.10873L313.24 0.731244L308.793 0.0404797Z" fill="#1A1A1A"/>
<path d="M302.374 12.4981L301.695 16.8657L306.063 17.5442L306.741 13.1766L302.374 12.4981Z" fill="#1A1A1A"/>
<path d="M303.062 8.1154L302.382 12.4929L306.749 13.1714L307.429 8.79389L303.062 8.1154Z" fill="#1A1A1A"/>
<path d="M303.736 3.75105L303.058 8.11865L307.426 8.79714L308.104 4.42955L303.736 3.75105Z" fill="#1A1A1A"/>
<path d="M331.536 11.3151L330.483 18.0938L337.252 19.1452L338.305 12.3666L331.536 11.3151Z" fill="#FDC62B"/>
<path d="M7.02001 38.8801V38.8301H7.01001L7.02001 38.8801Z" fill="#FDC629"/>
<path d="M43.7099 48.8301H43.6599V48.8801L43.7099 48.8301Z" fill="#FDC629"/>
<path d="M10.3501 45.55V45.49H10.3201L10.3501 45.55Z" fill="#FDC629"/>
<path d="M50.3301 38.8301H50.3201V38.8801L50.3301 38.8301Z" fill="#FDC629"/>
<path d="M47.01 45.49H46.99V45.54L47.01 45.49Z" fill="#FDC629"/>
<path d="M13.6799 48.8801V48.8301H13.6299L13.6799 48.8801Z" fill="#FDC629"/>
<path d="M37 52.21L37.09 52.16H37V52.21Z" fill="#FDC629"/>
<path d="M20.34 52.16H20.24L20.34 52.21V52.16Z" fill="#FDC629"/>
<path d="M37 48.8298H43.66V45.4899H47V38.8298H50.33V22.2399H47V15.6299H43.66V12.3499H43.56H37V9.06982H36.77H20.49H20.35V12.3499H13.78H13.68V15.6299H10.4V22.2399H7.04004V38.8899H10.33V45.5499H13.66V48.8899H20.33V52.1299H37V48.8298ZM33.66 18.8298H40.33V25.4999H33.66V18.8298ZM17.01 25.4999V18.8298H23.68V25.4999H17.01ZM33.89 45.4498H23.68V35.4498H33.89V45.4498Z" fill="#FDC629"/>
<path d="M288.85 593.85L292.72 616.37L297.22 615.59L298.77 624.59L303.28 623.81L304.05 628.32L313.05 626.77L313.83 631.28L336.33 627.43L335.55 622.92L344.55 621.37L343.78 616.86L348.28 616.09L346.73 607.09L351.23 606.31L347.36 583.8L342.86 584.57L341.31 575.57L336.81 576.34L336.04 571.83L327.04 573.38L326.27 568.87L303.74 572.74L304.52 577.25L295.52 578.8L296.29 583.31L291.78 584.08L293.33 593.08L288.83 593.86L288.85 593.85ZM328.63 582.4L333.13 581.62L334.68 590.62L330.18 591.4L328.63 582.4ZM301.63 587.04L306.14 586.27L307.69 595.27L303.18 596.04L301.63 587.04ZM304.72 605.04L336.57 599.57L338.13 608.57L333.62 609.34L334.39 613.8L329.87 614.58L330.65 619.09L316.84 621.46L316.06 616.95L311.56 617.73L310.79 613.26L306.28 614.04L304.72 605.04Z" fill="#FDC629"/>
</g>
<defs>
<clipPath id="clip0_625_757">
<rect width="351.28" height="631.3" fill="white"/>
</clipPath>
</defs>
</svg>
