<svg width="38" height="38" viewBox="0 0 38 38" fill="none" xmlns="http://www.w3.org/2000/svg">
<path fill-rule="evenodd" clip-rule="evenodd" d="M4.41919 0C2.21005 0 0.419189 1.79086 0.419189 4V33.1599C0.419189 35.3691 2.21005 37.1599 4.41919 37.1599H33.5791C35.7882 37.1599 37.5791 35.369 37.5791 33.1599V4C37.5791 1.79086 35.7882 0 33.5791 0H4.41919ZM25.2927 13.1408C25.2927 13.8212 24.7411 14.3727 24.0608 14.3727C23.3804 14.3727 22.8288 13.8212 22.8288 13.1408C22.8288 12.4604 23.3804 11.9088 24.0608 11.9088C24.7411 11.9088 25.2927 12.4604 25.2927 13.1408ZM18.5872 13.4895C17.5646 13.4895 16.565 13.7928 15.7147 14.3609C14.8644 14.929 14.2017 15.7365 13.8104 16.6813C13.4191 17.6261 13.3167 18.6657 13.5162 19.6686C13.7157 20.6716 14.2081 21.5928 14.9312 22.3159C15.6543 23.039 16.5756 23.5315 17.5785 23.731C18.5815 23.9305 19.6211 23.8281 20.5658 23.4367C21.5106 23.0454 22.3181 22.3827 22.8862 21.5324C23.4544 20.6822 23.7576 19.6825 23.7576 18.6599C23.7546 17.2896 23.2089 15.9762 22.2399 15.0072C21.2709 14.0382 19.9576 13.4925 18.5872 13.4895ZM18.5872 21.9729C17.932 21.9729 17.2914 21.7786 16.7466 21.4146C16.2018 21.0505 15.7772 20.5331 15.5264 19.9277C15.2757 19.3224 15.21 18.6562 15.3379 18.0136C15.4657 17.3709 15.7812 16.7806 16.2446 16.3173C16.7079 15.8539 17.2982 15.5384 17.9409 15.4106C18.5835 15.2828 19.2497 15.3484 19.855 15.5991C20.4604 15.8499 20.9778 16.2745 21.3419 16.8193C21.7059 17.3641 21.9002 18.0047 21.9002 18.6599C21.8992 19.5383 21.5498 20.3804 20.9287 21.0015C20.3077 21.6225 19.4656 21.9719 18.5872 21.9729ZM14.3076 29.1599H22.6924C24.365 29.1589 25.9688 28.494 27.1514 27.3114C28.3341 26.1287 28.999 24.5249 29 22.8523V14.4675C28.999 12.7949 28.3341 11.1912 27.1514 10.0085C25.9688 8.82579 24.365 8.16092 22.6924 8.15991H14.3076C12.635 8.16092 11.0312 8.82579 9.84856 10.0085C8.66587 11.1912 8.001 12.7949 8 14.4675V22.8523C8.001 24.5249 8.66587 26.1287 9.84856 27.3114C11.0312 28.494 12.635 29.1589 14.3076 29.1599ZM11.2461 11.406C12.0582 10.5939 13.1591 10.1368 14.3076 10.1348H22.6924C23.8409 10.1368 24.9418 10.5939 25.7539 11.406C26.566 12.2181 27.0231 13.319 27.0251 14.4675V22.8523C27.0231 24.0008 26.566 25.1017 25.7539 25.9138C24.9418 26.7259 23.8409 27.183 22.6924 27.185H14.3076C13.1591 27.183 12.0582 26.7259 11.2461 25.9138C10.434 25.1017 9.97691 24.0008 9.97491 22.8523V14.4675C9.97691 13.319 10.434 12.2181 11.2461 11.406Z" fill="#242424"/>
</svg>
