<svg width="21" height="21" viewBox="0 0 21 21" fill="none" xmlns="http://www.w3.org/2000/svg">
<g clip-path="url(#clip0_625_279)">
<path d="M15.5833 6.52233C16.235 6.52233 16.7633 5.99403 16.7633 5.34234C16.7633 4.69065 16.235 4.16235 15.5833 4.16235C14.9316 4.16235 14.4033 4.69065 14.4033 5.34234C14.4033 5.99403 14.9316 6.52233 15.5833 6.52233Z" fill="#FFC62F"/>
<path d="M10.3405 5.67627C9.36103 5.67627 8.40355 5.96672 7.58915 6.51089C6.77474 7.05506 6.13999 7.8285 5.76516 8.73342C5.39033 9.63834 5.29226 10.6341 5.48334 11.5947C5.67443 12.5554 6.14609 13.4378 6.83869 14.1304C7.53128 14.823 8.4137 15.2947 9.37436 15.4858C10.335 15.6769 11.3308 15.5788 12.2357 15.2039C13.1406 14.8291 13.9141 14.1944 14.4582 13.38C15.0024 12.5656 15.2928 11.6081 15.2928 10.6286C15.29 9.31604 14.7673 8.05807 13.8392 7.12995C12.911 6.20183 11.6531 5.67915 10.3405 5.67627ZM10.3405 13.8019C9.7129 13.8019 9.09938 13.6158 8.57754 13.2671C8.0557 12.9184 7.64897 12.4228 7.4088 11.843C7.16862 11.2631 7.10578 10.6251 7.22822 10.0095C7.35066 9.39397 7.65289 8.82855 8.09667 8.38476C8.54046 7.94097 9.10588 7.63875 9.72144 7.5163C10.337 7.39386 10.975 7.4567 11.5549 7.69688C12.1347 7.93706 12.6303 8.34378 12.979 8.86562C13.3277 9.38747 13.5138 10.001 13.5138 10.6286C13.5128 11.4699 13.1782 12.2765 12.5833 12.8714C11.9884 13.4663 11.1818 13.8009 10.3405 13.8019Z" fill="#FFC62F"/>
<path d="M14.2727 20.6858H6.2415C4.63948 20.6849 3.10334 20.048 1.97054 18.9152C0.83774 17.7824 0.200913 16.2463 0.199951 14.6443L0.199951 6.61308C0.200913 5.01106 0.83774 3.47493 1.97054 2.34212C3.10334 1.20932 4.63948 0.572495 6.2415 0.571533L14.2727 0.571533C15.8747 0.572495 17.4108 1.20932 18.5436 2.34212C19.6764 3.47493 20.3133 5.01106 20.3142 6.61308V14.6443C20.3133 16.2463 19.6764 17.7824 18.5436 18.9152C17.4108 20.048 15.8747 20.6849 14.2727 20.6858ZM6.2415 2.46315C5.14146 2.46507 4.08702 2.90291 3.30917 3.68076C2.53133 4.4586 2.09349 5.51304 2.09157 6.61308V14.6443C2.09349 15.7443 2.53133 16.7987 3.30917 17.5766C4.08702 18.3544 5.14146 18.7923 6.2415 18.7942H14.2727C15.3727 18.7923 16.4272 18.3544 17.205 17.5766C17.9829 16.7987 18.4207 15.7443 18.4226 14.6443V6.61308C18.4207 5.51304 17.9829 4.4586 17.205 3.68076C16.4272 2.90291 15.3727 2.46507 14.2727 2.46315H6.2415Z" fill="#FFC62F"/>
</g>
<defs>
<clipPath id="clip0_625_279">
<rect width="20.1143" height="20.1143" fill="white" transform="translate(0.199951 0.571533)"/>
</clipPath>
</defs>
</svg>
