<svg width="375" height="700" viewBox="0 0 375 700" fill="none" xmlns="http://www.w3.org/2000/svg">
<path d="M128.315 441.661L127.472 441.885L127.247 441.044L126.404 441.268L127.022 443.791L126.18 444.015L125.337 440.596L123.652 441.044L124.326 443.566L123.483 443.791L122.584 440.428L120.899 440.82L121.573 443.342L120.73 443.566L118.764 436L117.079 436.392L119.888 447.378L119.045 447.602L118.596 445.92L117.753 446.145L117.584 445.304L115 445.92L115.449 447.658L116.292 447.434L116.517 448.274L117.36 448.05L118.034 450.572L118.876 450.348L119.27 452.03L120.112 451.861L120.562 453.543L121.405 453.319L121.854 455L129.438 453.094L128.989 451.357L129.831 451.189L129.157 448.611L130 448.442L128.315 441.661Z" fill="#FDC629"/>
<path d="M1 350.188L74.8627 350.848V271.709H365.037V317.214" stroke="black" stroke-width="1.22915" stroke-dasharray="3.68 3.68"/>
<path d="M202.012 287.009C184.404 287.009 166.927 282.722 151.627 274.611C142.856 269.928 134.678 263.927 125.313 255.222L125.182 255.09C114.564 243.615 106.386 230.755 101.44 217.829C96.8895 205.892 94.5813 193.098 94.5813 179.842C94.5813 141.724 115.091 106.178 148.198 86.9864C149.121 86.4588 150.11 85.9312 151.165 85.3377C166.465 77.0941 183.678 72.6755 200.891 72.4777C201.023 72.4777 201.155 72.4117 201.286 72.4117C201.484 72.4117 201.682 72.2798 201.88 72.2798H202.012C261.168 72.2798 309.311 120.488 309.311 179.71C309.311 208.2 298.297 235.042 278.249 255.222L278.183 255.354C257.871 275.732 230.766 287.009 202.012 287.009ZM125.841 254.694C135.206 263.399 143.252 269.335 151.957 273.951C167.191 281.997 185.063 286.284 202.54 286.284C231.095 286.284 257.013 275.138 278.644 254.892L278.183 254.76C298.099 234.646 308.849 207.607 308.849 179.249C308.849 120.488 260.772 72.2139 202.078 72.2139H201.946C201.814 72.2139 201.616 72.6755 201.484 72.6755C201.352 72.6755 201.155 72.9393 201.023 72.9393C183.876 73.1372 166.795 77.6217 151.627 85.7993C150.572 86.3929 149.649 86.9205 148.659 87.514C115.817 106.573 95.4386 141.922 95.4386 179.776C95.4386 192.966 97.7469 205.694 102.231 217.565C106.98 230.359 115.157 243.219 125.841 254.694Z" fill="#999999"/>
<path d="M202.012 264.389C188.229 264.389 174.511 261.026 162.443 254.563C144.241 244.868 130.194 228.975 122.873 209.717C119.246 200.155 117.4 190.065 117.4 179.711C117.4 149.638 133.557 121.544 159.607 106.442C172.203 99.1213 186.514 95.2303 201.155 95.0984C201.418 95.0984 201.748 95.0984 202.012 95.0984C248.638 95.0984 286.624 133.085 286.624 179.711C286.624 226.402 248.638 264.389 202.012 264.389ZM201.946 95.6919C201.682 95.6919 201.418 95.6919 201.089 95.6919C186.58 95.8238 172.335 99.7148 159.805 106.969C133.953 122.006 117.861 149.836 117.861 179.711C117.861 189.999 119.708 200.023 123.269 209.52C130.523 228.645 144.439 244.472 162.575 254.035C174.577 260.432 188.163 263.795 201.88 263.795C248.242 263.795 285.965 226.073 285.965 179.711C286.031 133.415 248.308 95.6919 201.946 95.6919C202.012 95.6919 201.946 95.6919 201.946 95.6919Z" fill="#999999"/>
<path d="M202.012 240.383C192.12 240.383 182.359 237.943 173.654 233.327C160.596 226.402 150.506 214.993 145.296 201.21C142.724 194.351 141.405 187.097 141.405 179.71C141.405 158.145 153.012 138.031 171.676 127.215C180.711 122.005 190.999 119.169 201.418 119.104C201.616 119.104 201.814 119.104 202.012 119.104C235.448 119.104 262.619 146.274 262.619 179.71C262.619 213.147 235.382 240.383 202.012 240.383ZM201.946 119.104C201.748 119.104 201.55 119.367 201.353 119.367C190.999 119.499 180.776 122.401 171.873 127.545C153.408 138.295 141.933 158.277 141.933 179.579C141.933 186.899 143.252 194.087 145.824 200.88C150.968 214.531 160.992 225.875 173.918 232.733C182.491 237.284 192.252 239.724 202.012 239.724C235.118 239.724 262.091 212.487 262.091 179.381C262.025 146.34 235.118 119.104 201.946 119.104C202.012 119.104 201.946 119.104 201.946 119.104Z" fill="#FFD843"/>
<path d="M202.012 205.101C197.857 205.101 193.768 204.112 190.141 202.133C184.667 199.231 180.447 194.483 178.27 188.68C177.215 185.844 176.622 182.81 176.622 179.711C176.622 170.676 181.502 161.97 189.284 157.486C193.043 155.31 197.33 153.793 201.748 153.793H202.012C215.993 153.793 227.336 165.466 227.336 179.447C227.336 193.428 215.993 205.101 202.012 205.101ZM202.012 154.98H201.748C197.462 155.046 193.241 156.167 189.548 158.277C181.898 162.696 177.149 170.939 177.149 179.711C177.149 182.744 177.677 185.712 178.732 188.482C180.842 194.087 184.997 198.77 190.339 201.606C193.9 203.452 197.923 204.507 201.946 204.507C215.597 204.507 226.743 193.362 226.743 179.711C226.743 166.059 215.663 154.98 202.012 154.98Z" fill="#E6E6E6"/>
<g opacity="0.1">
<path opacity="0.1" d="M201.682 72.8079V179.447L183.942 197.187L158.947 222.05L141.933 238.933L125.907 254.827C115.487 244.341 107.309 231.613 101.968 217.566C97.4831 205.761 95.043 193.033 95.043 179.711C95.043 140.208 116.476 105.65 148.396 87.1847C149.385 86.6571 150.308 86.0636 151.297 85.536C166.07 77.5562 182.821 73.0057 200.759 72.8079C201.155 72.8079 201.682 72.8079 201.682 72.8079Z" fill="#E6E6E6"/>
</g>
<g opacity="0.2">
<path opacity="0.2" d="M308.915 179.447C308.915 208.794 297.044 235.569 277.919 254.892V254.958L261.894 239.064L244.879 222.181L219.752 197.319L201.682 179.447V72.2139H202.012C261.036 72.2139 308.915 120.357 308.915 179.447Z" fill="#F9E295"/>
</g>
<g opacity="0.6">
<path opacity="0.6" d="M286.558 265.906H116.806V95.1641H286.558V265.906ZM116.806 264.982H286.558V95.1641H116.806V264.982Z" stroke="#E6E6E6" stroke-width="0.93799" stroke-miterlimit="10"/>
</g>
<g opacity="0.7">
<path opacity="0.7" d="M262.619 241.043H141.669V119.104H262.685V241.043H262.619ZM141.669 240.12H261.762V119.104H141.669V240.12Z" fill="#E6E6E6"/>
</g>
<path d="M203.067 119.038C203.067 119.829 202.408 120.555 201.55 120.555C200.759 120.555 200.034 119.895 200.034 119.038C200.034 118.247 200.693 117.521 201.55 117.521C202.408 117.521 203.067 118.181 203.067 119.038Z" fill="#E6E6E6"/>
<path d="M203.067 94.5705C203.067 95.3619 202.408 96.0874 201.55 96.0874C200.759 96.0874 200.034 95.4279 200.034 94.5705C200.034 93.7791 200.693 93.0537 201.55 93.0537C202.408 93.0537 203.067 93.7132 203.067 94.5705Z" fill="#E6E6E6"/>
<path d="M203.067 72.9394C203.067 73.7308 202.408 74.4562 201.55 74.4562C200.759 74.4562 200.034 73.7968 200.034 72.9394C200.034 72.148 200.693 71.4226 201.55 71.4226C202.408 71.4226 203.067 72.0821 203.067 72.9394Z" fill="#E6E6E6"/>
<path d="M263.279 119.961C263.279 120.752 262.619 121.478 261.762 121.478C260.97 121.478 260.245 120.818 260.245 119.961C260.245 119.17 260.904 118.444 261.762 118.444C262.619 118.444 263.279 119.104 263.279 119.961Z" fill="#E6E6E6"/>
<path d="M288.735 94.5705C288.735 95.3619 288.075 96.0874 287.218 96.0874C286.427 96.0874 285.701 95.4279 285.701 94.5705C285.701 93.7791 286.361 93.0537 287.218 93.0537C288.009 93.0537 288.735 93.7132 288.735 94.5705Z" fill="#E6E6E6"/>
<path d="M288.735 264.85C288.735 265.642 288.075 266.367 287.218 266.367C286.427 266.367 285.701 265.708 285.701 264.85C285.701 264.059 286.361 263.333 287.218 263.333C288.009 263.333 288.735 263.993 288.735 264.85Z" fill="#E6E6E6"/>
<path d="M118.916 264.85C118.916 265.642 118.257 266.367 117.4 266.367C116.608 266.367 115.883 265.708 115.883 264.85C115.883 264.059 116.542 263.333 117.4 263.333C118.257 263.333 118.916 263.993 118.916 264.85Z" fill="#E6E6E6"/>
<path d="M118.916 94.5705C118.916 95.3619 118.257 96.0874 117.4 96.0874C116.608 96.0874 115.883 95.4279 115.883 94.5705C115.883 93.7791 116.542 93.0537 117.4 93.0537C118.257 93.0537 118.916 93.7132 118.916 94.5705Z" fill="#E6E6E6"/>
<path d="M118.916 179.711C118.916 180.502 118.257 181.228 117.4 181.228C116.608 181.228 115.883 180.568 115.883 179.711C115.883 178.919 116.542 178.194 117.4 178.194C118.257 178.194 118.916 178.853 118.916 179.711Z" fill="#E6E6E6"/>
<path d="M287.745 179.711C287.745 180.502 287.086 181.228 286.229 181.228C285.437 181.228 284.712 180.568 284.712 179.711C284.712 178.919 285.371 178.194 286.229 178.194C287.086 178.194 287.745 178.853 287.745 179.711Z" fill="#E6E6E6"/>
<path d="M263.279 239.922C263.279 240.713 262.619 241.439 261.762 241.439C260.97 241.439 260.245 240.779 260.245 239.922C260.245 239.13 260.904 238.405 261.762 238.405C262.619 238.405 263.279 239.065 263.279 239.922Z" fill="#E6E6E6"/>
<path d="M142.922 119.961C142.922 120.752 142.262 121.478 141.405 121.478C140.614 121.478 139.888 120.818 139.888 119.961C139.888 119.17 140.548 118.444 141.405 118.444C142.196 118.444 142.922 119.104 142.922 119.961Z" fill="#E6E6E6"/>
<path d="M142.922 179.711C142.922 180.502 142.262 181.228 141.405 181.228C140.614 181.228 139.888 180.568 139.888 179.711C139.888 178.919 140.548 178.194 141.405 178.194C142.196 178.194 142.922 178.853 142.922 179.711Z" fill="#E6E6E6"/>
<path d="M263.278 179.711C263.278 180.502 262.619 181.228 261.762 181.228C260.97 181.228 260.245 180.568 260.245 179.711C260.245 178.919 260.904 178.194 261.762 178.194C262.619 178.194 263.278 178.853 263.278 179.711Z" fill="#E6E6E6"/>
<path d="M142.922 239.922C142.922 240.713 142.262 241.439 141.405 241.439C140.614 241.439 139.888 240.779 139.888 239.922C139.888 239.13 140.548 238.405 141.405 238.405C142.196 238.405 142.922 239.065 142.922 239.922Z" fill="#E6E6E6"/>
<path d="M220.374 2.30811H297.27H220.374Z" stroke="#E6E6E6" stroke-width="0.93799" stroke-miterlimit="10"/>
<path d="M297.176 2.77043L297.572 1.91309L297.176 2.77043Z" stroke="#E6E6E6" stroke-width="0.93799" stroke-miterlimit="10"/>
<path d="M296.451 4.48511L261.102 86.3935" stroke="#E6E6E6" stroke-width="0.93799" stroke-miterlimit="10" stroke-dasharray="1.88 1.88"/>
<path d="M260.706 87.2509L260.311 88.1082L260.706 87.2509Z" stroke="#E6E6E6" stroke-width="0.93799" stroke-miterlimit="10"/>
<path d="M261.432 85.5363L296.846 3.62781" stroke="#E6E6E6" stroke-width="0.93799" stroke-miterlimit="10" stroke-dasharray="1.88 1.88"/>
<path d="M263.505 0H285.07V4.68237H263.505V0Z" fill="#E6E6E6"/>
<path d="M363 326H297H363Z" stroke="#E6E6E6" stroke-width="0.93799" stroke-miterlimit="10"/>
<path d="M297.572 325.985L258.992 270.984L297.572 325.985Z" stroke="#E6E6E6" stroke-width="0.93799" stroke-miterlimit="10" stroke-dasharray="1.88 1.88"/>
<path d="M331.14 322.688H309.575V328.293H331.14V322.688Z" fill="#E6E6E6"/>
<path d="M361.608 41.2841V21.5654V41.2841Z" stroke="#E6E6E6" stroke-width="0.93799" stroke-miterlimit="10"/>
<path opacity="0.5" d="M62 493V459V493Z" stroke="#E6E6E6" stroke-width="1.03329" stroke-miterlimit="10"/>
<path opacity="0.5" d="M68 493V452V493Z" stroke="#E6E6E6" stroke-width="1.03329" stroke-miterlimit="10"/>
<path opacity="0.5" d="M76 493V440V493Z" stroke="#E6E6E6" stroke-width="1.03329" stroke-miterlimit="10"/>
<path opacity="0.5" d="M83 493V462V493Z" stroke="#E6E6E6" stroke-width="1.03329" stroke-miterlimit="10"/>
<path opacity="0.5" d="M89 493V468V493Z" stroke="#E6E6E6" stroke-width="1.03329" stroke-miterlimit="10"/>
<path opacity="0.5" d="M98 493V459V493Z" stroke="#E6E6E6" stroke-width="1.03329" stroke-miterlimit="10"/>
<path opacity="0.5" d="M103 493V477V493Z" stroke="#E6E6E6" stroke-width="1.03329" stroke-miterlimit="10"/>
<path opacity="0.5" d="M111 486V493V486Z" stroke="#E6E6E6" stroke-width="1.03329" stroke-miterlimit="10"/>
<path opacity="0.5" d="M119 493V481V493Z" stroke="#E6E6E6" stroke-width="1.03329" stroke-miterlimit="10"/>
<path opacity="0.5" d="M125 493V484V493Z" stroke="#E6E6E6" stroke-width="1.03329" stroke-miterlimit="10"/>
<path opacity="0.5" d="M134 493V481V493Z" stroke="#E6E6E6" stroke-width="1.03329" stroke-miterlimit="10"/>
<path opacity="0.5" d="M141 493V449V493Z" stroke="#E6E6E6" stroke-width="1.03329" stroke-miterlimit="10"/>
<path opacity="0.5" d="M147 493V462V493Z" stroke="#E6E6E6" stroke-width="1.03329" stroke-miterlimit="10"/>
<path opacity="0.5" d="M156 493V462V493Z" stroke="#E6E6E6" stroke-width="1.03329" stroke-miterlimit="10"/>
<path opacity="0.5" d="M162 493V471V493Z" stroke="#E6E6E6" stroke-width="1.03329" stroke-miterlimit="10"/>
<path opacity="0.5" d="M170 493V449V493Z" stroke="#E6E6E6" stroke-width="1.03329" stroke-miterlimit="10"/>
<path opacity="0.5" d="M178 493V433V493Z" stroke="#E6E6E6" stroke-width="1.03329" stroke-miterlimit="10"/>
<path opacity="0.5" d="M184 493V417V493Z" stroke="#E6E6E6" stroke-width="1.03329" stroke-miterlimit="10"/>
<path opacity="0.5" d="M192 493V442V493Z" stroke="#E6E6E6" stroke-width="1.03329" stroke-miterlimit="10"/>
<path opacity="0.5" d="M199 493V468V493Z" stroke="#E6E6E6" stroke-width="1.03329" stroke-miterlimit="10"/>
<path opacity="0.5" d="M206 493V430V493Z" stroke="#E6E6E6" stroke-width="1.03329" stroke-miterlimit="10"/>
<path opacity="0.5" d="M213 493V456V493Z" stroke="#E6E6E6" stroke-width="1.03329" stroke-miterlimit="10"/>
<path opacity="0.5" d="M221 493V456V493Z" stroke="#E6E6E6" stroke-width="1.03329" stroke-miterlimit="10"/>
<path opacity="0.5" d="M228 417V493V417Z" stroke="#E6E6E6" stroke-width="1.03329" stroke-miterlimit="10"/>
<path opacity="0.5" d="M235 493V471V493Z" stroke="#E6E6E6" stroke-width="1.03329" stroke-miterlimit="10"/>
<path opacity="0.5" d="M241 493V417V493Z" stroke="#E6E6E6" stroke-width="1.03329" stroke-miterlimit="10"/>
<path d="M63 458C63 459.077 62.1282 460 61 460C59.9231 460 59 459.128 59 458C59 456.923 59.8718 456 61 456C62.1282 456.051 63 456.923 63 458Z" fill="#E6E6E6"/>
<path d="M70 451C70 452.077 69.1282 453 68 453C66.9231 453 66 452.128 66 451C66 449.923 66.8718 449 68 449C69.1282 449 70 449.923 70 451Z" fill="#E6E6E6"/>
<path d="M78 439C78 440.077 76.9102 441 75.5 441C74.1538 441 73 440.128 73 439C73 437.923 74.0897 437 75.5 437C76.8461 437 78 437.923 78 439Z" fill="#E6E6E6"/>
<path d="M85 462C85 463.077 84.1282 464 83 464C81.9231 464 81 463.128 81 462C81 460.923 81.8718 460 83 460C84.1282 460 85 460.872 85 462Z" fill="#E6E6E6"/>
<path d="M92 466C92 467.077 91.1282 468 90 468C88.9231 468 88 467.128 88 466C88 464.923 88.8718 464 90 464C91.1282 464 92 464.923 92 466Z" fill="#E6E6E6"/>
<path d="M99 458C99 459.077 98.1282 460 97 460C95.9231 460 95 459.128 95 458C95 456.923 95.8718 456 97 456C98.1282 456.051 99 456.923 99 458Z" fill="#E6E6E6"/>
<path d="M107 477.5C107 478.846 105.91 480 104.5 480C103.154 480 102 478.91 102 477.5C102 476.154 103.09 475 104.5 475C105.91 475.064 107 476.154 107 477.5Z" fill="#E6E6E6"/>
<path d="M114 485.5C114 486.846 113.128 488 112 488C110.923 488 110 486.91 110 485.5C110 484.154 110.872 483 112 483C113.077 483 114 484.154 114 485.5Z" fill="#E6E6E6"/>
<path d="M121 481.5C121 482.846 120.128 484 119 484C117.923 484 117 482.91 117 481.5C117 480.154 117.872 479 119 479C120.128 479 121 480.09 121 481.5Z" fill="#E6E6E6"/>
<path d="M128 484C128 485.077 127.128 486 126 486C124.923 486 124 485.128 124 484C124 482.923 124.872 482 126 482C127.128 482.051 128 482.923 128 484Z" fill="#E6E6E6"/>
<path d="M136 481.5C136 482.846 134.91 484 133.5 484C132.154 484 131 482.91 131 481.5C131 480.154 132.09 479 133.5 479C134.91 479 136 480.09 136 481.5Z" fill="#E6E6E6"/>
<path d="M143 449C143 450.077 142.128 451 141 451C139.923 451 139 450.128 139 449C139 447.923 139.872 447 141 447C142.128 447 143 447.923 143 449Z" fill="#E6E6E6"/>
<path d="M150 462C150 463.077 149.128 464 148 464C146.923 464 146 463.128 146 462C146 460.923 146.872 460 148 460C149.077 460 150 460.872 150 462Z" fill="#E6E6E6"/>
<path d="M158 462C158 463.077 156.91 464 155.5 464C154.154 464 153 463.128 153 462C153 460.923 154.09 460 155.5 460C156.91 460 158 460.872 158 462Z" fill="#E6E6E6"/>
<path d="M165 471C165 472.077 163.91 473 162.5 473C161.154 473 160 472.128 160 471C160 469.923 161.09 469 162.5 469C163.91 469 165 469.872 165 471Z" fill="#E6E6E6"/>
<path d="M172 449C172 450.077 171.128 451 170 451C168.923 451 168 450.128 168 449C168 447.923 168.872 447 170 447C171.128 447 172 447.923 172 449Z" fill="#E6E6E6"/>
<path d="M179 433C179 434.077 178.128 435 177 435C175.923 435 175 434.128 175 433C175 431.923 175.872 431 177 431C178.128 431 179 431.872 179 433Z" fill="#E6E6E6"/>
<path d="M187 417C187 418.077 185.91 419 184.5 419C183.154 419 182 418.128 182 417C182 415.923 183.09 415 184.5 415C185.846 415.051 187 415.923 187 417Z" fill="#E6E6E6"/>
<path d="M194 442C194 443.077 192.91 444 191.5 444C190.154 444 189 443.128 189 442C189 440.923 190.09 440 191.5 440C192.91 440 194 440.923 194 442Z" fill="#E6E6E6"/>
<path d="M201 467C201 468.077 200.128 469 199 469C197.923 469 197 468.128 197 467C197 465.923 197.872 465 199 465C200.128 465.051 201 465.923 201 467Z" fill="#E6E6E6"/>
<path d="M208 430C208 431.077 207.128 432 206 432C204.923 432 204 431.128 204 430C204 428.923 204.872 428 206 428C207.128 428 208 428.923 208 430Z" fill="#E6E6E6"/>
<path d="M216 456C216 457.077 214.91 458 213.5 458C212.154 458 211 457.128 211 456C211 454.923 212.09 454 213.5 454C214.846 454 216 454.872 216 456Z" fill="#E6E6E6"/>
<path d="M223 456.5C223 457.846 221.91 459 220.5 459C219.154 459 218 457.91 218 456.5C218 455.154 219.09 454 220.5 454C221.846 454.064 223 455.154 223 456.5Z" fill="#E6E6E6"/>
<path d="M230 417C230 418.077 229.128 419 228 419C226.923 419 226 418.128 226 417C226 415.923 226.872 415 228 415C229.128 415.051 230 415.923 230 417Z" fill="#E6E6E6"/>
<path d="M237 471C237 472.077 236.128 473 235 473C233.923 473 233 472.128 233 471C233 469.923 233.872 469 235 469C236.128 469 237 469.872 237 471Z" fill="#E6E6E6"/>
<path d="M245 417C245 418.077 243.91 419 242.5 419C241.154 419 240 418.128 240 417C240 415.923 241.09 415 242.5 415C243.91 415.051 245 415.923 245 417Z" fill="#E6E6E6"/>
<path opacity="0.1" d="M352 409H51H352Z" stroke="#E6E6E6" stroke-width="1.03329" stroke-miterlimit="10"/>
<path opacity="0.1" d="M352 417H51H352Z" stroke="#E6E6E6" stroke-width="1.03329" stroke-miterlimit="10"/>
<path opacity="0.1" d="M352 426H51H352Z" stroke="#E6E6E6" stroke-width="1.03329" stroke-miterlimit="10"/>
<path opacity="0.1" d="M352 433H51H352Z" stroke="#E6E6E6" stroke-width="1.03329" stroke-miterlimit="10"/>
<path opacity="0.1" d="M352 442H51H352Z" stroke="#E6E6E6" stroke-width="1.03329" stroke-miterlimit="10"/>
<path opacity="0.1" d="M352 450H51H352Z" stroke="#E6E6E6" stroke-width="1.03329" stroke-miterlimit="10"/>
<path opacity="0.1" d="M352 457H51H352Z" stroke="#E6E6E6" stroke-width="1.03329" stroke-miterlimit="10"/>
<path opacity="0.1" d="M352 465H51H352Z" stroke="#E6E6E6" stroke-width="1.03329" stroke-miterlimit="10"/>
<path opacity="0.1" d="M352 474H51H352Z" stroke="#E6E6E6" stroke-width="1.03329" stroke-miterlimit="10"/>
<path opacity="0.1" d="M352 481H51H352Z" stroke="#E6E6E6" stroke-width="1.03329" stroke-miterlimit="10"/>
<path opacity="0.1" d="M352 490H51H352Z" stroke="#E6E6E6" stroke-width="1.03329" stroke-miterlimit="10"/>
<path d="M257 493V471V493Z" stroke="#E6E6E6" stroke-width="1.03329" stroke-miterlimit="10"/>
<path d="M264 493V461V493Z" stroke="#E6E6E6" stroke-width="1.03329" stroke-miterlimit="10"/>
<path d="M272 493V451V493Z" stroke="#E6E6E6" stroke-width="1.03329" stroke-miterlimit="10"/>
<path d="M279 493V436V493Z" stroke="#E6E6E6" stroke-width="1.03329" stroke-miterlimit="10"/>
<path d="M286 493V431V493Z" stroke="#E6E6E6" stroke-width="1.03329" stroke-miterlimit="10"/>
<path d="M293 493V468V493Z" stroke="#E6E6E6" stroke-width="1.03329" stroke-miterlimit="10"/>
<path d="M301 493V474V493Z" stroke="#E6E6E6" stroke-width="1.03329" stroke-miterlimit="10"/>
<path d="M308 493V465V493Z" stroke="#E6E6E6" stroke-width="1.03329" stroke-miterlimit="10"/>
<path d="M315 493V461V493Z" stroke="#E6E6E6" stroke-width="1.03329" stroke-miterlimit="10"/>
<path d="M323 493V471V493Z" stroke="#E6E6E6" stroke-width="1.03329" stroke-miterlimit="10"/>
<path d="M329 493V459V493Z" stroke="#E6E6E6" stroke-width="1.03329" stroke-miterlimit="10"/>
<path d="M337 493V443V493Z" stroke="#E6E6E6" stroke-width="1.03329" stroke-miterlimit="10"/>
<path d="M344 493V461V493Z" stroke="#E6E6E6" stroke-width="1.03329" stroke-miterlimit="10"/>
<path opacity="0.5" d="M60.963 497.399V497.82C60.963 498.047 60.9427 498.238 60.9023 498.393C60.8618 498.549 60.8036 498.674 60.7278 498.769C60.6519 498.863 60.5602 498.932 60.4528 498.975C60.3466 499.017 60.2265 499.038 60.0924 499.038C59.9862 499.038 59.8882 499.025 59.7985 498.998C59.7087 498.972 59.6278 498.929 59.5557 498.871C59.4849 498.812 59.4242 498.734 59.3736 498.64C59.3231 498.545 59.2845 498.43 59.2579 498.294C59.2314 498.159 59.2181 498.001 59.2181 497.82V497.399C59.2181 497.173 59.2383 496.983 59.2788 496.83C59.3205 496.677 59.3793 496.555 59.4552 496.462C59.531 496.369 59.6221 496.302 59.7283 496.261C59.8358 496.221 59.9559 496.201 60.0886 496.201C60.1961 496.201 60.2947 496.214 60.3845 496.24C60.4755 496.266 60.5565 496.307 60.6273 496.364C60.6981 496.419 60.7581 496.494 60.8074 496.588C60.858 496.68 60.8966 496.793 60.9231 496.927C60.9497 497.061 60.963 497.218 60.963 497.399ZM60.6102 497.877V497.34C60.6102 497.217 60.6026 497.108 60.5874 497.014C60.5735 496.919 60.5527 496.839 60.5248 496.772C60.497 496.705 60.4616 496.65 60.4186 496.608C60.3769 496.567 60.3282 496.536 60.2726 496.517C60.2182 496.497 60.1569 496.487 60.0886 496.487C60.0052 496.487 59.9312 496.503 59.8667 496.534C59.8023 496.565 59.7479 496.613 59.7036 496.68C59.6606 496.748 59.6278 496.835 59.605 496.944C59.5822 497.053 59.5709 497.185 59.5709 497.34V497.877C59.5709 498.001 59.5778 498.111 59.5917 498.205C59.6069 498.3 59.629 498.382 59.6581 498.452C59.6872 498.52 59.7226 498.576 59.7643 498.621C59.806 498.665 59.8541 498.698 59.9085 498.719C59.9641 498.74 60.0254 498.75 60.0924 498.75C60.1784 498.75 60.2536 498.733 60.3181 498.7C60.3826 498.667 60.4363 498.616 60.4793 498.547C60.5236 498.476 60.5565 498.386 60.578 498.276C60.5994 498.164 60.6102 498.031 60.6102 497.877ZM63.1478 497.399V497.82C63.1478 498.047 63.1276 498.238 63.0871 498.393C63.0467 498.549 62.9885 498.674 62.9126 498.769C62.8368 498.863 62.7451 498.932 62.6376 498.975C62.5314 499.017 62.4113 499.038 62.2773 499.038C62.1711 499.038 62.0731 499.025 61.9833 498.998C61.8935 498.972 61.8126 498.929 61.7406 498.871C61.6697 498.812 61.6091 498.734 61.5585 498.64C61.5079 498.545 61.4693 498.43 61.4428 498.294C61.4162 498.159 61.403 498.001 61.403 497.82V497.399C61.403 497.173 61.4232 496.983 61.4637 496.83C61.5054 496.677 61.5642 496.555 61.64 496.462C61.7159 496.369 61.8069 496.302 61.9131 496.261C62.0206 496.221 62.1407 496.201 62.2735 496.201C62.381 496.201 62.4796 496.214 62.5694 496.24C62.6604 496.266 62.7413 496.307 62.8121 496.364C62.8829 496.419 62.943 496.494 62.9923 496.588C63.0429 496.68 63.0814 496.793 63.108 496.927C63.1345 497.061 63.1478 497.218 63.1478 497.399ZM62.795 497.877V497.34C62.795 497.217 62.7875 497.108 62.7723 497.014C62.7584 496.919 62.7375 496.839 62.7097 496.772C62.6819 496.705 62.6465 496.65 62.6035 496.608C62.5618 496.567 62.5131 496.536 62.4575 496.517C62.4031 496.497 62.3418 496.487 62.2735 496.487C62.19 496.487 62.1161 496.503 62.0516 496.534C61.9871 496.565 61.9327 496.613 61.8885 496.68C61.8455 496.748 61.8126 496.835 61.7899 496.944C61.7671 497.053 61.7557 497.185 61.7557 497.34V497.877C61.7557 498.001 61.7627 498.111 61.7766 498.205C61.7918 498.3 61.8139 498.382 61.843 498.452C61.872 498.52 61.9075 498.576 61.9492 498.621C61.9909 498.665 62.0389 498.698 62.0933 498.719C62.1489 498.74 62.2103 498.75 62.2773 498.75C62.3633 498.75 62.4385 498.733 62.503 498.7C62.5675 498.667 62.6212 498.616 62.6642 498.547C62.7084 498.476 62.7413 498.386 62.7628 498.276C62.7843 498.164 62.795 498.031 62.795 497.877ZM64.3673 497.682V497.97H63.4418V497.682H64.3673ZM65.0216 498.706H65.0577C65.26 498.706 65.4243 498.678 65.5508 498.621C65.6772 498.564 65.7746 498.487 65.8428 498.391C65.9111 498.295 65.9579 498.187 65.9832 498.067C66.0085 497.946 66.0211 497.821 66.0211 497.693V497.27C66.0211 497.145 66.0066 497.034 65.9775 496.937C65.9497 496.839 65.9105 496.758 65.8599 496.692C65.8106 496.626 65.7543 496.576 65.6911 496.542C65.6279 496.508 65.5609 496.491 65.4901 496.491C65.4092 496.491 65.3365 496.507 65.272 496.54C65.2088 496.572 65.155 496.617 65.1108 496.675C65.0678 496.733 65.0349 496.801 65.0121 496.88C64.9894 496.958 64.978 497.043 64.978 497.136C64.978 497.218 64.9881 497.298 65.0084 497.375C65.0286 497.452 65.0596 497.521 65.1013 497.583C65.143 497.645 65.1948 497.695 65.2568 497.731C65.32 497.767 65.394 497.784 65.4787 497.784C65.5571 497.784 65.6304 497.769 65.6987 497.739C65.7682 497.707 65.8296 497.665 65.8827 497.612C65.937 497.557 65.98 497.496 66.0116 497.428C66.0445 497.359 66.0635 497.288 66.0685 497.213H66.2354C66.2354 497.318 66.2146 497.422 66.1728 497.524C66.1324 497.626 66.0755 497.718 66.0022 497.801C65.9288 497.885 65.8428 497.952 65.7442 498.002C65.6456 498.052 65.5381 498.076 65.4218 498.076C65.2853 498.076 65.167 498.05 65.0671 497.997C64.9673 497.944 64.8851 497.873 64.8206 497.784C64.7574 497.696 64.71 497.597 64.6783 497.488C64.648 497.378 64.6328 497.267 64.6328 497.155C64.6328 497.023 64.6512 496.9 64.6878 496.785C64.7245 496.67 64.7789 496.569 64.8509 496.481C64.923 496.393 65.0121 496.324 65.1184 496.275C65.2258 496.225 65.3497 496.201 65.4901 496.201C65.6481 496.201 65.7828 496.232 65.8941 496.295C66.0053 496.359 66.0957 496.443 66.1653 496.55C66.2361 496.656 66.2879 496.775 66.3208 496.908C66.3537 497.041 66.3701 497.177 66.3701 497.318V497.445C66.3701 497.588 66.3606 497.733 66.3416 497.881C66.3239 498.028 66.2892 498.168 66.2373 498.302C66.1868 498.436 66.1128 498.556 66.0154 498.662C65.9181 498.767 65.791 498.851 65.6342 498.913C65.4787 498.973 65.2865 499.004 65.0577 499.004H65.0216V498.706ZM61.0957 503.071V503.359H59.1005V503.152L60.3371 501.239H60.6235L60.3162 501.792L59.4988 503.071H61.0957ZM60.7107 501.239V504H60.3598V501.239H60.7107Z" fill="#E6E6E6"/>
<path opacity="0.5" d="M89.963 497.399V497.82C89.963 498.047 89.9427 498.238 89.9023 498.393C89.8618 498.549 89.8036 498.674 89.7278 498.769C89.6519 498.863 89.5602 498.932 89.4528 498.975C89.3466 499.017 89.2265 499.038 89.0924 499.038C88.9862 499.038 88.8882 499.025 88.7985 498.998C88.7087 498.972 88.6278 498.929 88.5557 498.871C88.4849 498.812 88.4242 498.734 88.3736 498.64C88.3231 498.545 88.2845 498.43 88.2579 498.294C88.2314 498.159 88.2181 498.001 88.2181 497.82V497.399C88.2181 497.173 88.2383 496.983 88.2788 496.83C88.3205 496.677 88.3793 496.555 88.4552 496.462C88.531 496.369 88.6221 496.302 88.7283 496.261C88.8358 496.221 88.9559 496.201 89.0886 496.201C89.1961 496.201 89.2947 496.214 89.3845 496.24C89.4755 496.266 89.5565 496.307 89.6273 496.364C89.6981 496.419 89.7581 496.494 89.8074 496.588C89.858 496.68 89.8966 496.793 89.9231 496.927C89.9497 497.061 89.963 497.218 89.963 497.399ZM89.6102 497.877V497.34C89.6102 497.217 89.6026 497.108 89.5874 497.014C89.5735 496.919 89.5527 496.839 89.5248 496.772C89.497 496.705 89.4616 496.65 89.4186 496.608C89.3769 496.567 89.3282 496.536 89.2726 496.517C89.2182 496.497 89.1569 496.487 89.0886 496.487C89.0052 496.487 88.9312 496.503 88.8667 496.534C88.8023 496.565 88.7479 496.613 88.7036 496.68C88.6606 496.748 88.6278 496.835 88.605 496.944C88.5822 497.053 88.5709 497.185 88.5709 497.34V497.877C88.5709 498.001 88.5778 498.111 88.5917 498.205C88.6069 498.3 88.629 498.382 88.6581 498.452C88.6872 498.52 88.7226 498.576 88.7643 498.621C88.806 498.665 88.8541 498.698 88.9085 498.719C88.9641 498.74 89.0254 498.75 89.0924 498.75C89.1784 498.75 89.2536 498.733 89.3181 498.7C89.3826 498.667 89.4363 498.616 89.4793 498.547C89.5236 498.476 89.5565 498.386 89.578 498.276C89.5994 498.164 89.6102 498.031 89.6102 497.877ZM92.1478 497.399V497.82C92.1478 498.047 92.1276 498.238 92.0871 498.393C92.0467 498.549 91.9885 498.674 91.9126 498.769C91.8368 498.863 91.7451 498.932 91.6376 498.975C91.5314 499.017 91.4113 499.038 91.2773 499.038C91.1711 499.038 91.0731 499.025 90.9833 498.998C90.8935 498.972 90.8126 498.929 90.7406 498.871C90.6697 498.812 90.6091 498.734 90.5585 498.64C90.5079 498.545 90.4693 498.43 90.4428 498.294C90.4162 498.159 90.403 498.001 90.403 497.82V497.399C90.403 497.173 90.4232 496.983 90.4637 496.83C90.5054 496.677 90.5642 496.555 90.64 496.462C90.7159 496.369 90.8069 496.302 90.9131 496.261C91.0206 496.221 91.1407 496.201 91.2735 496.201C91.381 496.201 91.4796 496.214 91.5694 496.24C91.6604 496.266 91.7413 496.307 91.8121 496.364C91.8829 496.419 91.943 496.494 91.9923 496.588C92.0429 496.68 92.0814 496.793 92.108 496.927C92.1345 497.061 92.1478 497.218 92.1478 497.399ZM91.795 497.877V497.34C91.795 497.217 91.7875 497.108 91.7723 497.014C91.7584 496.919 91.7375 496.839 91.7097 496.772C91.6819 496.705 91.6465 496.65 91.6035 496.608C91.5618 496.567 91.5131 496.536 91.4575 496.517C91.4031 496.497 91.3418 496.487 91.2735 496.487C91.19 496.487 91.1161 496.503 91.0516 496.534C90.9871 496.565 90.9327 496.613 90.8885 496.68C90.8455 496.748 90.8126 496.835 90.7899 496.944C90.7671 497.053 90.7557 497.185 90.7557 497.34V497.877C90.7557 498.001 90.7627 498.111 90.7766 498.205C90.7918 498.3 90.8139 498.382 90.843 498.452C90.872 498.52 90.9075 498.576 90.9492 498.621C90.9909 498.665 91.0389 498.698 91.0933 498.719C91.1489 498.74 91.2103 498.75 91.2773 498.75C91.3633 498.75 91.4385 498.733 91.503 498.7C91.5675 498.667 91.6212 498.616 91.6642 498.547C91.7084 498.476 91.7413 498.386 91.7628 498.276C91.7843 498.164 91.795 498.031 91.795 497.877ZM93.3673 497.682V497.97H92.4418V497.682H93.3673ZM94.0216 498.706H94.0577C94.26 498.706 94.4243 498.678 94.5508 498.621C94.6772 498.564 94.7746 498.487 94.8428 498.391C94.9111 498.295 94.9579 498.187 94.9832 498.067C95.0085 497.946 95.0211 497.821 95.0211 497.693V497.27C95.0211 497.145 95.0066 497.034 94.9775 496.937C94.9497 496.839 94.9105 496.758 94.8599 496.692C94.8106 496.626 94.7543 496.576 94.6911 496.542C94.6279 496.508 94.5609 496.491 94.4901 496.491C94.4092 496.491 94.3365 496.507 94.272 496.54C94.2088 496.572 94.155 496.617 94.1108 496.675C94.0678 496.733 94.0349 496.801 94.0121 496.88C93.9894 496.958 93.978 497.043 93.978 497.136C93.978 497.218 93.9881 497.298 94.0084 497.375C94.0286 497.452 94.0596 497.521 94.1013 497.583C94.143 497.645 94.1948 497.695 94.2568 497.731C94.32 497.767 94.394 497.784 94.4787 497.784C94.5571 497.784 94.6304 497.769 94.6987 497.739C94.7682 497.707 94.8296 497.665 94.8827 497.612C94.937 497.557 94.98 497.496 95.0116 497.428C95.0445 497.359 95.0635 497.288 95.0685 497.213H95.2354C95.2354 497.318 95.2146 497.422 95.1728 497.524C95.1324 497.626 95.0755 497.718 95.0022 497.801C94.9288 497.885 94.8428 497.952 94.7442 498.002C94.6456 498.052 94.5381 498.076 94.4218 498.076C94.2853 498.076 94.167 498.05 94.0671 497.997C93.9673 497.944 93.8851 497.873 93.8206 497.784C93.7574 497.696 93.71 497.597 93.6783 497.488C93.648 497.378 93.6328 497.267 93.6328 497.155C93.6328 497.023 93.6512 496.9 93.6878 496.785C93.7245 496.67 93.7789 496.569 93.8509 496.481C93.923 496.393 94.0121 496.324 94.1184 496.275C94.2258 496.225 94.3497 496.201 94.4901 496.201C94.6481 496.201 94.7828 496.232 94.8941 496.295C95.0053 496.359 95.0957 496.443 95.1653 496.55C95.2361 496.656 95.2879 496.775 95.3208 496.908C95.3537 497.041 95.3701 497.177 95.3701 497.318V497.445C95.3701 497.588 95.3606 497.733 95.3416 497.881C95.3239 498.028 95.2892 498.168 95.2373 498.302C95.1868 498.436 95.1128 498.556 95.0154 498.662C94.9181 498.767 94.791 498.851 94.6342 498.913C94.4787 498.973 94.2865 499.004 94.0577 499.004H94.0216V498.706ZM90.0957 503.071V503.359H88.1005V503.152L89.3371 501.239H89.6235L89.3162 501.792L88.4988 503.071H90.0957ZM89.7107 501.239V504H89.3598V501.239H89.7107Z" fill="#E6E6E6"/>
<path opacity="0.5" d="M118.963 497.399V497.82C118.963 498.047 118.943 498.238 118.902 498.393C118.862 498.549 118.804 498.674 118.728 498.769C118.652 498.863 118.56 498.932 118.453 498.975C118.347 499.017 118.226 499.038 118.092 499.038C117.986 499.038 117.888 499.025 117.798 498.998C117.709 498.972 117.628 498.929 117.556 498.871C117.485 498.812 117.424 498.734 117.374 498.64C117.323 498.545 117.284 498.43 117.258 498.294C117.231 498.159 117.218 498.001 117.218 497.82V497.399C117.218 497.173 117.238 496.983 117.279 496.83C117.321 496.677 117.379 496.555 117.455 496.462C117.531 496.369 117.622 496.302 117.728 496.261C117.836 496.221 117.956 496.201 118.089 496.201C118.196 496.201 118.295 496.214 118.385 496.24C118.476 496.266 118.556 496.307 118.627 496.364C118.698 496.419 118.758 496.494 118.807 496.588C118.858 496.68 118.897 496.793 118.923 496.927C118.95 497.061 118.963 497.218 118.963 497.399ZM118.61 497.877V497.34C118.61 497.217 118.603 497.108 118.587 497.014C118.574 496.919 118.553 496.839 118.525 496.772C118.497 496.705 118.462 496.65 118.419 496.608C118.377 496.567 118.328 496.536 118.273 496.517C118.218 496.497 118.157 496.487 118.089 496.487C118.005 496.487 117.931 496.503 117.867 496.534C117.802 496.565 117.748 496.613 117.704 496.68C117.661 496.748 117.628 496.835 117.605 496.944C117.582 497.053 117.571 497.185 117.571 497.34V497.877C117.571 498.001 117.578 498.111 117.592 498.205C117.607 498.3 117.629 498.382 117.658 498.452C117.687 498.52 117.723 498.576 117.764 498.621C117.806 498.665 117.854 498.698 117.908 498.719C117.964 498.74 118.025 498.75 118.092 498.75C118.178 498.75 118.254 498.733 118.318 498.7C118.383 498.667 118.436 498.616 118.479 498.547C118.524 498.476 118.556 498.386 118.578 498.276C118.599 498.164 118.61 498.031 118.61 497.877ZM121.148 497.399V497.82C121.148 498.047 121.128 498.238 121.087 498.393C121.047 498.549 120.988 498.674 120.913 498.769C120.837 498.863 120.745 498.932 120.638 498.975C120.531 499.017 120.411 499.038 120.277 499.038C120.171 499.038 120.073 499.025 119.983 498.998C119.894 498.972 119.813 498.929 119.741 498.871C119.67 498.812 119.609 498.734 119.558 498.64C119.508 498.545 119.469 498.43 119.443 498.294C119.416 498.159 119.403 498.001 119.403 497.82V497.399C119.403 497.173 119.423 496.983 119.464 496.83C119.505 496.677 119.564 496.555 119.64 496.462C119.716 496.369 119.807 496.302 119.913 496.261C120.021 496.221 120.141 496.201 120.273 496.201C120.381 496.201 120.48 496.214 120.569 496.24C120.66 496.266 120.741 496.307 120.812 496.364C120.883 496.419 120.943 496.494 120.992 496.588C121.043 496.68 121.081 496.793 121.108 496.927C121.135 497.061 121.148 497.218 121.148 497.399ZM120.795 497.877V497.34C120.795 497.217 120.787 497.108 120.772 497.014C120.758 496.919 120.738 496.839 120.71 496.772C120.682 496.705 120.646 496.65 120.603 496.608C120.562 496.567 120.513 496.536 120.457 496.517C120.403 496.497 120.342 496.487 120.273 496.487C120.19 496.487 120.116 496.503 120.052 496.534C119.987 496.565 119.933 496.613 119.888 496.68C119.845 496.748 119.813 496.835 119.79 496.944C119.767 497.053 119.756 497.185 119.756 497.34V497.877C119.756 498.001 119.763 498.111 119.777 498.205C119.792 498.3 119.814 498.382 119.843 498.452C119.872 498.52 119.907 498.576 119.949 498.621C119.991 498.665 120.039 498.698 120.093 498.719C120.149 498.74 120.21 498.75 120.277 498.75C120.363 498.75 120.438 498.733 120.503 498.7C120.567 498.667 120.621 498.616 120.664 498.547C120.708 498.476 120.741 498.386 120.763 498.276C120.784 498.164 120.795 498.031 120.795 497.877ZM122.367 497.682V497.97H121.442V497.682H122.367ZM123.022 498.706H123.058C123.26 498.706 123.424 498.678 123.551 498.621C123.677 498.564 123.775 498.487 123.843 498.391C123.911 498.295 123.958 498.187 123.983 498.067C124.008 497.946 124.021 497.821 124.021 497.693V497.27C124.021 497.145 124.007 497.034 123.978 496.937C123.95 496.839 123.91 496.758 123.86 496.692C123.811 496.626 123.754 496.576 123.691 496.542C123.628 496.508 123.561 496.491 123.49 496.491C123.409 496.491 123.336 496.507 123.272 496.54C123.209 496.572 123.155 496.617 123.111 496.675C123.068 496.733 123.035 496.801 123.012 496.88C122.989 496.958 122.978 497.043 122.978 497.136C122.978 497.218 122.988 497.298 123.008 497.375C123.029 497.452 123.06 497.521 123.101 497.583C123.143 497.645 123.195 497.695 123.257 497.731C123.32 497.767 123.394 497.784 123.479 497.784C123.557 497.784 123.63 497.769 123.699 497.739C123.768 497.707 123.83 497.665 123.883 497.612C123.937 497.557 123.98 497.496 124.012 497.428C124.045 497.359 124.063 497.288 124.069 497.213H124.235C124.235 497.318 124.215 497.422 124.173 497.524C124.132 497.626 124.075 497.718 124.002 497.801C123.929 497.885 123.843 497.952 123.744 498.002C123.646 498.052 123.538 498.076 123.422 498.076C123.285 498.076 123.167 498.05 123.067 497.997C122.967 497.944 122.885 497.873 122.821 497.784C122.757 497.696 122.71 497.597 122.678 497.488C122.648 497.378 122.633 497.267 122.633 497.155C122.633 497.023 122.651 496.9 122.688 496.785C122.724 496.67 122.779 496.569 122.851 496.481C122.923 496.393 123.012 496.324 123.118 496.275C123.226 496.225 123.35 496.201 123.49 496.201C123.648 496.201 123.783 496.232 123.894 496.295C124.005 496.359 124.096 496.443 124.165 496.55C124.236 496.656 124.288 496.775 124.321 496.908C124.354 497.041 124.37 497.177 124.37 497.318V497.445C124.37 497.588 124.361 497.733 124.342 497.881C124.324 498.028 124.289 498.168 124.237 498.302C124.187 498.436 124.113 498.556 124.015 498.662C123.918 498.767 123.791 498.851 123.634 498.913C123.479 498.973 123.287 499.004 123.058 499.004H123.022V498.706ZM119.096 503.071V503.359H117.101V503.152L118.337 501.239H118.623L118.316 501.792L117.499 503.071H119.096ZM118.711 501.239V504H118.36V501.239H118.711Z" fill="#E6E6E6"/>
<path opacity="0.5" d="M147.963 497.399V497.82C147.963 498.047 147.943 498.238 147.902 498.393C147.862 498.549 147.804 498.674 147.728 498.769C147.652 498.863 147.56 498.932 147.453 498.975C147.347 499.017 147.226 499.038 147.092 499.038C146.986 499.038 146.888 499.025 146.798 498.998C146.709 498.972 146.628 498.929 146.556 498.871C146.485 498.812 146.424 498.734 146.374 498.64C146.323 498.545 146.284 498.43 146.258 498.294C146.231 498.159 146.218 498.001 146.218 497.82V497.399C146.218 497.173 146.238 496.983 146.279 496.83C146.321 496.677 146.379 496.555 146.455 496.462C146.531 496.369 146.622 496.302 146.728 496.261C146.836 496.221 146.956 496.201 147.089 496.201C147.196 496.201 147.295 496.214 147.385 496.24C147.476 496.266 147.556 496.307 147.627 496.364C147.698 496.419 147.758 496.494 147.807 496.588C147.858 496.68 147.897 496.793 147.923 496.927C147.95 497.061 147.963 497.218 147.963 497.399ZM147.61 497.877V497.34C147.61 497.217 147.603 497.108 147.587 497.014C147.574 496.919 147.553 496.839 147.525 496.772C147.497 496.705 147.462 496.65 147.419 496.608C147.377 496.567 147.328 496.536 147.273 496.517C147.218 496.497 147.157 496.487 147.089 496.487C147.005 496.487 146.931 496.503 146.867 496.534C146.802 496.565 146.748 496.613 146.704 496.68C146.661 496.748 146.628 496.835 146.605 496.944C146.582 497.053 146.571 497.185 146.571 497.34V497.877C146.571 498.001 146.578 498.111 146.592 498.205C146.607 498.3 146.629 498.382 146.658 498.452C146.687 498.52 146.723 498.576 146.764 498.621C146.806 498.665 146.854 498.698 146.908 498.719C146.964 498.74 147.025 498.75 147.092 498.75C147.178 498.75 147.254 498.733 147.318 498.7C147.383 498.667 147.436 498.616 147.479 498.547C147.524 498.476 147.556 498.386 147.578 498.276C147.599 498.164 147.61 498.031 147.61 497.877ZM150.148 497.399V497.82C150.148 498.047 150.128 498.238 150.087 498.393C150.047 498.549 149.988 498.674 149.913 498.769C149.837 498.863 149.745 498.932 149.638 498.975C149.531 499.017 149.411 499.038 149.277 499.038C149.171 499.038 149.073 499.025 148.983 498.998C148.894 498.972 148.813 498.929 148.741 498.871C148.67 498.812 148.609 498.734 148.558 498.64C148.508 498.545 148.469 498.43 148.443 498.294C148.416 498.159 148.403 498.001 148.403 497.82V497.399C148.403 497.173 148.423 496.983 148.464 496.83C148.505 496.677 148.564 496.555 148.64 496.462C148.716 496.369 148.807 496.302 148.913 496.261C149.021 496.221 149.141 496.201 149.273 496.201C149.381 496.201 149.48 496.214 149.569 496.24C149.66 496.266 149.741 496.307 149.812 496.364C149.883 496.419 149.943 496.494 149.992 496.588C150.043 496.68 150.081 496.793 150.108 496.927C150.135 497.061 150.148 497.218 150.148 497.399ZM149.795 497.877V497.34C149.795 497.217 149.787 497.108 149.772 497.014C149.758 496.919 149.738 496.839 149.71 496.772C149.682 496.705 149.646 496.65 149.603 496.608C149.562 496.567 149.513 496.536 149.457 496.517C149.403 496.497 149.342 496.487 149.273 496.487C149.19 496.487 149.116 496.503 149.052 496.534C148.987 496.565 148.933 496.613 148.888 496.68C148.845 496.748 148.813 496.835 148.79 496.944C148.767 497.053 148.756 497.185 148.756 497.34V497.877C148.756 498.001 148.763 498.111 148.777 498.205C148.792 498.3 148.814 498.382 148.843 498.452C148.872 498.52 148.907 498.576 148.949 498.621C148.991 498.665 149.039 498.698 149.093 498.719C149.149 498.74 149.21 498.75 149.277 498.75C149.363 498.75 149.438 498.733 149.503 498.7C149.567 498.667 149.621 498.616 149.664 498.547C149.708 498.476 149.741 498.386 149.763 498.276C149.784 498.164 149.795 498.031 149.795 497.877ZM151.367 497.682V497.97H150.442V497.682H151.367ZM152.022 498.706H152.058C152.26 498.706 152.424 498.678 152.551 498.621C152.677 498.564 152.775 498.487 152.843 498.391C152.911 498.295 152.958 498.187 152.983 498.067C153.008 497.946 153.021 497.821 153.021 497.693V497.27C153.021 497.145 153.007 497.034 152.978 496.937C152.95 496.839 152.91 496.758 152.86 496.692C152.811 496.626 152.754 496.576 152.691 496.542C152.628 496.508 152.561 496.491 152.49 496.491C152.409 496.491 152.336 496.507 152.272 496.54C152.209 496.572 152.155 496.617 152.111 496.675C152.068 496.733 152.035 496.801 152.012 496.88C151.989 496.958 151.978 497.043 151.978 497.136C151.978 497.218 151.988 497.298 152.008 497.375C152.029 497.452 152.06 497.521 152.101 497.583C152.143 497.645 152.195 497.695 152.257 497.731C152.32 497.767 152.394 497.784 152.479 497.784C152.557 497.784 152.63 497.769 152.699 497.739C152.768 497.707 152.83 497.665 152.883 497.612C152.937 497.557 152.98 497.496 153.012 497.428C153.045 497.359 153.063 497.288 153.069 497.213H153.235C153.235 497.318 153.215 497.422 153.173 497.524C153.132 497.626 153.075 497.718 153.002 497.801C152.929 497.885 152.843 497.952 152.744 498.002C152.646 498.052 152.538 498.076 152.422 498.076C152.285 498.076 152.167 498.05 152.067 497.997C151.967 497.944 151.885 497.873 151.821 497.784C151.757 497.696 151.71 497.597 151.678 497.488C151.648 497.378 151.633 497.267 151.633 497.155C151.633 497.023 151.651 496.9 151.688 496.785C151.724 496.67 151.779 496.569 151.851 496.481C151.923 496.393 152.012 496.324 152.118 496.275C152.226 496.225 152.35 496.201 152.49 496.201C152.648 496.201 152.783 496.232 152.894 496.295C153.005 496.359 153.096 496.443 153.165 496.55C153.236 496.656 153.288 496.775 153.321 496.908C153.354 497.041 153.37 497.177 153.37 497.318V497.445C153.37 497.588 153.361 497.733 153.342 497.881C153.324 498.028 153.289 498.168 153.237 498.302C153.187 498.436 153.113 498.556 153.015 498.662C152.918 498.767 152.791 498.851 152.634 498.913C152.479 498.973 152.287 499.004 152.058 499.004H152.022V498.706ZM148.096 503.071V503.359H146.101V503.152L147.337 501.239H147.623L147.316 501.792L146.499 503.071H148.096ZM147.711 501.239V504H147.36V501.239H147.711Z" fill="#E6E6E6"/>
<path opacity="0.5" d="M176.963 497.399V497.82C176.963 498.047 176.943 498.238 176.902 498.393C176.862 498.549 176.804 498.674 176.728 498.769C176.652 498.863 176.56 498.932 176.453 498.975C176.347 499.017 176.226 499.038 176.092 499.038C175.986 499.038 175.888 499.025 175.798 498.998C175.709 498.972 175.628 498.929 175.556 498.871C175.485 498.812 175.424 498.734 175.374 498.64C175.323 498.545 175.284 498.43 175.258 498.294C175.231 498.159 175.218 498.001 175.218 497.82V497.399C175.218 497.173 175.238 496.983 175.279 496.83C175.321 496.677 175.379 496.555 175.455 496.462C175.531 496.369 175.622 496.302 175.728 496.261C175.836 496.221 175.956 496.201 176.089 496.201C176.196 496.201 176.295 496.214 176.385 496.24C176.476 496.266 176.556 496.307 176.627 496.364C176.698 496.419 176.758 496.494 176.807 496.588C176.858 496.68 176.897 496.793 176.923 496.927C176.95 497.061 176.963 497.218 176.963 497.399ZM176.61 497.877V497.34C176.61 497.217 176.603 497.108 176.587 497.014C176.574 496.919 176.553 496.839 176.525 496.772C176.497 496.705 176.462 496.65 176.419 496.608C176.377 496.567 176.328 496.536 176.273 496.517C176.218 496.497 176.157 496.487 176.089 496.487C176.005 496.487 175.931 496.503 175.867 496.534C175.802 496.565 175.748 496.613 175.704 496.68C175.661 496.748 175.628 496.835 175.605 496.944C175.582 497.053 175.571 497.185 175.571 497.34V497.877C175.571 498.001 175.578 498.111 175.592 498.205C175.607 498.3 175.629 498.382 175.658 498.452C175.687 498.52 175.723 498.576 175.764 498.621C175.806 498.665 175.854 498.698 175.908 498.719C175.964 498.74 176.025 498.75 176.092 498.75C176.178 498.75 176.254 498.733 176.318 498.7C176.383 498.667 176.436 498.616 176.479 498.547C176.524 498.476 176.556 498.386 176.578 498.276C176.599 498.164 176.61 498.031 176.61 497.877ZM179.148 497.399V497.82C179.148 498.047 179.128 498.238 179.087 498.393C179.047 498.549 178.988 498.674 178.913 498.769C178.837 498.863 178.745 498.932 178.638 498.975C178.531 499.017 178.411 499.038 178.277 499.038C178.171 499.038 178.073 499.025 177.983 498.998C177.894 498.972 177.813 498.929 177.741 498.871C177.67 498.812 177.609 498.734 177.558 498.64C177.508 498.545 177.469 498.43 177.443 498.294C177.416 498.159 177.403 498.001 177.403 497.82V497.399C177.403 497.173 177.423 496.983 177.464 496.83C177.505 496.677 177.564 496.555 177.64 496.462C177.716 496.369 177.807 496.302 177.913 496.261C178.021 496.221 178.141 496.201 178.273 496.201C178.381 496.201 178.48 496.214 178.569 496.24C178.66 496.266 178.741 496.307 178.812 496.364C178.883 496.419 178.943 496.494 178.992 496.588C179.043 496.68 179.081 496.793 179.108 496.927C179.135 497.061 179.148 497.218 179.148 497.399ZM178.795 497.877V497.34C178.795 497.217 178.787 497.108 178.772 497.014C178.758 496.919 178.738 496.839 178.71 496.772C178.682 496.705 178.646 496.65 178.603 496.608C178.562 496.567 178.513 496.536 178.457 496.517C178.403 496.497 178.342 496.487 178.273 496.487C178.19 496.487 178.116 496.503 178.052 496.534C177.987 496.565 177.933 496.613 177.888 496.68C177.845 496.748 177.813 496.835 177.79 496.944C177.767 497.053 177.756 497.185 177.756 497.34V497.877C177.756 498.001 177.763 498.111 177.777 498.205C177.792 498.3 177.814 498.382 177.843 498.452C177.872 498.52 177.907 498.576 177.949 498.621C177.991 498.665 178.039 498.698 178.093 498.719C178.149 498.74 178.21 498.75 178.277 498.75C178.363 498.75 178.438 498.733 178.503 498.7C178.567 498.667 178.621 498.616 178.664 498.547C178.708 498.476 178.741 498.386 178.763 498.276C178.784 498.164 178.795 498.031 178.795 497.877ZM180.367 497.682V497.97H179.442V497.682H180.367ZM181.022 498.706H181.058C181.26 498.706 181.424 498.678 181.551 498.621C181.677 498.564 181.775 498.487 181.843 498.391C181.911 498.295 181.958 498.187 181.983 498.067C182.008 497.946 182.021 497.821 182.021 497.693V497.27C182.021 497.145 182.007 497.034 181.978 496.937C181.95 496.839 181.91 496.758 181.86 496.692C181.811 496.626 181.754 496.576 181.691 496.542C181.628 496.508 181.561 496.491 181.49 496.491C181.409 496.491 181.336 496.507 181.272 496.54C181.209 496.572 181.155 496.617 181.111 496.675C181.068 496.733 181.035 496.801 181.012 496.88C180.989 496.958 180.978 497.043 180.978 497.136C180.978 497.218 180.988 497.298 181.008 497.375C181.029 497.452 181.06 497.521 181.101 497.583C181.143 497.645 181.195 497.695 181.257 497.731C181.32 497.767 181.394 497.784 181.479 497.784C181.557 497.784 181.63 497.769 181.699 497.739C181.768 497.707 181.83 497.665 181.883 497.612C181.937 497.557 181.98 497.496 182.012 497.428C182.045 497.359 182.063 497.288 182.069 497.213H182.235C182.235 497.318 182.215 497.422 182.173 497.524C182.132 497.626 182.075 497.718 182.002 497.801C181.929 497.885 181.843 497.952 181.744 498.002C181.646 498.052 181.538 498.076 181.422 498.076C181.285 498.076 181.167 498.05 181.067 497.997C180.967 497.944 180.885 497.873 180.821 497.784C180.757 497.696 180.71 497.597 180.678 497.488C180.648 497.378 180.633 497.267 180.633 497.155C180.633 497.023 180.651 496.9 180.688 496.785C180.724 496.67 180.779 496.569 180.851 496.481C180.923 496.393 181.012 496.324 181.118 496.275C181.226 496.225 181.35 496.201 181.49 496.201C181.648 496.201 181.783 496.232 181.894 496.295C182.005 496.359 182.096 496.443 182.165 496.55C182.236 496.656 182.288 496.775 182.321 496.908C182.354 497.041 182.37 497.177 182.37 497.318V497.445C182.37 497.588 182.361 497.733 182.342 497.881C182.324 498.028 182.289 498.168 182.237 498.302C182.187 498.436 182.113 498.556 182.015 498.662C181.918 498.767 181.791 498.851 181.634 498.913C181.479 498.973 181.287 499.004 181.058 499.004H181.022V498.706ZM177.096 503.071V503.359H175.101V503.152L176.337 501.239H176.623L176.316 501.792L175.499 503.071H177.096ZM176.711 501.239V504H176.36V501.239H176.711Z" fill="#E6E6E6"/>
<path opacity="0.5" d="M205.963 497.399V497.82C205.963 498.047 205.943 498.238 205.902 498.393C205.862 498.549 205.804 498.674 205.728 498.769C205.652 498.863 205.56 498.932 205.453 498.975C205.347 499.017 205.226 499.038 205.092 499.038C204.986 499.038 204.888 499.025 204.798 498.998C204.709 498.972 204.628 498.929 204.556 498.871C204.485 498.812 204.424 498.734 204.374 498.64C204.323 498.545 204.284 498.43 204.258 498.294C204.231 498.159 204.218 498.001 204.218 497.82V497.399C204.218 497.173 204.238 496.983 204.279 496.83C204.321 496.677 204.379 496.555 204.455 496.462C204.531 496.369 204.622 496.302 204.728 496.261C204.836 496.221 204.956 496.201 205.089 496.201C205.196 496.201 205.295 496.214 205.385 496.24C205.476 496.266 205.556 496.307 205.627 496.364C205.698 496.419 205.758 496.494 205.807 496.588C205.858 496.68 205.897 496.793 205.923 496.927C205.95 497.061 205.963 497.218 205.963 497.399ZM205.61 497.877V497.34C205.61 497.217 205.603 497.108 205.587 497.014C205.574 496.919 205.553 496.839 205.525 496.772C205.497 496.705 205.462 496.65 205.419 496.608C205.377 496.567 205.328 496.536 205.273 496.517C205.218 496.497 205.157 496.487 205.089 496.487C205.005 496.487 204.931 496.503 204.867 496.534C204.802 496.565 204.748 496.613 204.704 496.68C204.661 496.748 204.628 496.835 204.605 496.944C204.582 497.053 204.571 497.185 204.571 497.34V497.877C204.571 498.001 204.578 498.111 204.592 498.205C204.607 498.3 204.629 498.382 204.658 498.452C204.687 498.52 204.723 498.576 204.764 498.621C204.806 498.665 204.854 498.698 204.908 498.719C204.964 498.74 205.025 498.75 205.092 498.75C205.178 498.75 205.254 498.733 205.318 498.7C205.383 498.667 205.436 498.616 205.479 498.547C205.524 498.476 205.556 498.386 205.578 498.276C205.599 498.164 205.61 498.031 205.61 497.877ZM208.148 497.399V497.82C208.148 498.047 208.128 498.238 208.087 498.393C208.047 498.549 207.988 498.674 207.913 498.769C207.837 498.863 207.745 498.932 207.638 498.975C207.531 499.017 207.411 499.038 207.277 499.038C207.171 499.038 207.073 499.025 206.983 498.998C206.894 498.972 206.813 498.929 206.741 498.871C206.67 498.812 206.609 498.734 206.558 498.64C206.508 498.545 206.469 498.43 206.443 498.294C206.416 498.159 206.403 498.001 206.403 497.82V497.399C206.403 497.173 206.423 496.983 206.464 496.83C206.505 496.677 206.564 496.555 206.64 496.462C206.716 496.369 206.807 496.302 206.913 496.261C207.021 496.221 207.141 496.201 207.273 496.201C207.381 496.201 207.48 496.214 207.569 496.24C207.66 496.266 207.741 496.307 207.812 496.364C207.883 496.419 207.943 496.494 207.992 496.588C208.043 496.68 208.081 496.793 208.108 496.927C208.135 497.061 208.148 497.218 208.148 497.399ZM207.795 497.877V497.34C207.795 497.217 207.787 497.108 207.772 497.014C207.758 496.919 207.738 496.839 207.71 496.772C207.682 496.705 207.646 496.65 207.603 496.608C207.562 496.567 207.513 496.536 207.457 496.517C207.403 496.497 207.342 496.487 207.273 496.487C207.19 496.487 207.116 496.503 207.052 496.534C206.987 496.565 206.933 496.613 206.888 496.68C206.845 496.748 206.813 496.835 206.79 496.944C206.767 497.053 206.756 497.185 206.756 497.34V497.877C206.756 498.001 206.763 498.111 206.777 498.205C206.792 498.3 206.814 498.382 206.843 498.452C206.872 498.52 206.907 498.576 206.949 498.621C206.991 498.665 207.039 498.698 207.093 498.719C207.149 498.74 207.21 498.75 207.277 498.75C207.363 498.75 207.438 498.733 207.503 498.7C207.567 498.667 207.621 498.616 207.664 498.547C207.708 498.476 207.741 498.386 207.763 498.276C207.784 498.164 207.795 498.031 207.795 497.877ZM209.367 497.682V497.97H208.442V497.682H209.367ZM210.022 498.706H210.058C210.26 498.706 210.424 498.678 210.551 498.621C210.677 498.564 210.775 498.487 210.843 498.391C210.911 498.295 210.958 498.187 210.983 498.067C211.008 497.946 211.021 497.821 211.021 497.693V497.27C211.021 497.145 211.007 497.034 210.978 496.937C210.95 496.839 210.91 496.758 210.86 496.692C210.811 496.626 210.754 496.576 210.691 496.542C210.628 496.508 210.561 496.491 210.49 496.491C210.409 496.491 210.336 496.507 210.272 496.54C210.209 496.572 210.155 496.617 210.111 496.675C210.068 496.733 210.035 496.801 210.012 496.88C209.989 496.958 209.978 497.043 209.978 497.136C209.978 497.218 209.988 497.298 210.008 497.375C210.029 497.452 210.06 497.521 210.101 497.583C210.143 497.645 210.195 497.695 210.257 497.731C210.32 497.767 210.394 497.784 210.479 497.784C210.557 497.784 210.63 497.769 210.699 497.739C210.768 497.707 210.83 497.665 210.883 497.612C210.937 497.557 210.98 497.496 211.012 497.428C211.045 497.359 211.063 497.288 211.069 497.213H211.235C211.235 497.318 211.215 497.422 211.173 497.524C211.132 497.626 211.075 497.718 211.002 497.801C210.929 497.885 210.843 497.952 210.744 498.002C210.646 498.052 210.538 498.076 210.422 498.076C210.285 498.076 210.167 498.05 210.067 497.997C209.967 497.944 209.885 497.873 209.821 497.784C209.757 497.696 209.71 497.597 209.678 497.488C209.648 497.378 209.633 497.267 209.633 497.155C209.633 497.023 209.651 496.9 209.688 496.785C209.724 496.67 209.779 496.569 209.851 496.481C209.923 496.393 210.012 496.324 210.118 496.275C210.226 496.225 210.35 496.201 210.49 496.201C210.648 496.201 210.783 496.232 210.894 496.295C211.005 496.359 211.096 496.443 211.165 496.55C211.236 496.656 211.288 496.775 211.321 496.908C211.354 497.041 211.37 497.177 211.37 497.318V497.445C211.37 497.588 211.361 497.733 211.342 497.881C211.324 498.028 211.289 498.168 211.237 498.302C211.187 498.436 211.113 498.556 211.015 498.662C210.918 498.767 210.791 498.851 210.634 498.913C210.479 498.973 210.287 499.004 210.058 499.004H210.022V498.706ZM206.096 503.071V503.359H204.101V503.152L205.337 501.239H205.623L205.316 501.792L204.499 503.071H206.096ZM205.711 501.239V504H205.36V501.239H205.711Z" fill="#E6E6E6"/>
<path opacity="0.5" d="M232.963 497.399V497.82C232.963 498.047 232.943 498.238 232.902 498.393C232.862 498.549 232.804 498.674 232.728 498.769C232.652 498.863 232.56 498.932 232.453 498.975C232.347 499.017 232.226 499.038 232.092 499.038C231.986 499.038 231.888 499.025 231.798 498.998C231.709 498.972 231.628 498.929 231.556 498.871C231.485 498.812 231.424 498.734 231.374 498.64C231.323 498.545 231.284 498.43 231.258 498.294C231.231 498.159 231.218 498.001 231.218 497.82V497.399C231.218 497.173 231.238 496.983 231.279 496.83C231.321 496.677 231.379 496.555 231.455 496.462C231.531 496.369 231.622 496.302 231.728 496.261C231.836 496.221 231.956 496.201 232.089 496.201C232.196 496.201 232.295 496.214 232.385 496.24C232.476 496.266 232.556 496.307 232.627 496.364C232.698 496.419 232.758 496.494 232.807 496.588C232.858 496.68 232.897 496.793 232.923 496.927C232.95 497.061 232.963 497.218 232.963 497.399ZM232.61 497.877V497.34C232.61 497.217 232.603 497.108 232.587 497.014C232.574 496.919 232.553 496.839 232.525 496.772C232.497 496.705 232.462 496.65 232.419 496.608C232.377 496.567 232.328 496.536 232.273 496.517C232.218 496.497 232.157 496.487 232.089 496.487C232.005 496.487 231.931 496.503 231.867 496.534C231.802 496.565 231.748 496.613 231.704 496.68C231.661 496.748 231.628 496.835 231.605 496.944C231.582 497.053 231.571 497.185 231.571 497.34V497.877C231.571 498.001 231.578 498.111 231.592 498.205C231.607 498.3 231.629 498.382 231.658 498.452C231.687 498.52 231.723 498.576 231.764 498.621C231.806 498.665 231.854 498.698 231.908 498.719C231.964 498.74 232.025 498.75 232.092 498.75C232.178 498.75 232.254 498.733 232.318 498.7C232.383 498.667 232.436 498.616 232.479 498.547C232.524 498.476 232.556 498.386 232.578 498.276C232.599 498.164 232.61 498.031 232.61 497.877ZM235.148 497.399V497.82C235.148 498.047 235.128 498.238 235.087 498.393C235.047 498.549 234.988 498.674 234.913 498.769C234.837 498.863 234.745 498.932 234.638 498.975C234.531 499.017 234.411 499.038 234.277 499.038C234.171 499.038 234.073 499.025 233.983 498.998C233.894 498.972 233.813 498.929 233.741 498.871C233.67 498.812 233.609 498.734 233.558 498.64C233.508 498.545 233.469 498.43 233.443 498.294C233.416 498.159 233.403 498.001 233.403 497.82V497.399C233.403 497.173 233.423 496.983 233.464 496.83C233.505 496.677 233.564 496.555 233.64 496.462C233.716 496.369 233.807 496.302 233.913 496.261C234.021 496.221 234.141 496.201 234.273 496.201C234.381 496.201 234.48 496.214 234.569 496.24C234.66 496.266 234.741 496.307 234.812 496.364C234.883 496.419 234.943 496.494 234.992 496.588C235.043 496.68 235.081 496.793 235.108 496.927C235.135 497.061 235.148 497.218 235.148 497.399ZM234.795 497.877V497.34C234.795 497.217 234.787 497.108 234.772 497.014C234.758 496.919 234.738 496.839 234.71 496.772C234.682 496.705 234.646 496.65 234.603 496.608C234.562 496.567 234.513 496.536 234.457 496.517C234.403 496.497 234.342 496.487 234.273 496.487C234.19 496.487 234.116 496.503 234.052 496.534C233.987 496.565 233.933 496.613 233.888 496.68C233.845 496.748 233.813 496.835 233.79 496.944C233.767 497.053 233.756 497.185 233.756 497.34V497.877C233.756 498.001 233.763 498.111 233.777 498.205C233.792 498.3 233.814 498.382 233.843 498.452C233.872 498.52 233.907 498.576 233.949 498.621C233.991 498.665 234.039 498.698 234.093 498.719C234.149 498.74 234.21 498.75 234.277 498.75C234.363 498.75 234.438 498.733 234.503 498.7C234.567 498.667 234.621 498.616 234.664 498.547C234.708 498.476 234.741 498.386 234.763 498.276C234.784 498.164 234.795 498.031 234.795 497.877ZM236.367 497.682V497.97H235.442V497.682H236.367ZM237.022 498.706H237.058C237.26 498.706 237.424 498.678 237.551 498.621C237.677 498.564 237.775 498.487 237.843 498.391C237.911 498.295 237.958 498.187 237.983 498.067C238.008 497.946 238.021 497.821 238.021 497.693V497.27C238.021 497.145 238.007 497.034 237.978 496.937C237.95 496.839 237.91 496.758 237.86 496.692C237.811 496.626 237.754 496.576 237.691 496.542C237.628 496.508 237.561 496.491 237.49 496.491C237.409 496.491 237.336 496.507 237.272 496.54C237.209 496.572 237.155 496.617 237.111 496.675C237.068 496.733 237.035 496.801 237.012 496.88C236.989 496.958 236.978 497.043 236.978 497.136C236.978 497.218 236.988 497.298 237.008 497.375C237.029 497.452 237.06 497.521 237.101 497.583C237.143 497.645 237.195 497.695 237.257 497.731C237.32 497.767 237.394 497.784 237.479 497.784C237.557 497.784 237.63 497.769 237.699 497.739C237.768 497.707 237.83 497.665 237.883 497.612C237.937 497.557 237.98 497.496 238.012 497.428C238.045 497.359 238.063 497.288 238.069 497.213H238.235C238.235 497.318 238.215 497.422 238.173 497.524C238.132 497.626 238.075 497.718 238.002 497.801C237.929 497.885 237.843 497.952 237.744 498.002C237.646 498.052 237.538 498.076 237.422 498.076C237.285 498.076 237.167 498.05 237.067 497.997C236.967 497.944 236.885 497.873 236.821 497.784C236.757 497.696 236.71 497.597 236.678 497.488C236.648 497.378 236.633 497.267 236.633 497.155C236.633 497.023 236.651 496.9 236.688 496.785C236.724 496.67 236.779 496.569 236.851 496.481C236.923 496.393 237.012 496.324 237.118 496.275C237.226 496.225 237.35 496.201 237.49 496.201C237.648 496.201 237.783 496.232 237.894 496.295C238.005 496.359 238.096 496.443 238.165 496.55C238.236 496.656 238.288 496.775 238.321 496.908C238.354 497.041 238.37 497.177 238.37 497.318V497.445C238.37 497.588 238.361 497.733 238.342 497.881C238.324 498.028 238.289 498.168 238.237 498.302C238.187 498.436 238.113 498.556 238.015 498.662C237.918 498.767 237.791 498.851 237.634 498.913C237.479 498.973 237.287 499.004 237.058 499.004H237.022V498.706ZM233.096 503.071V503.359H231.101V503.152L232.337 501.239H232.623L232.316 501.792L231.499 503.071H233.096ZM232.711 501.239V504H232.36V501.239H232.711Z" fill="#E6E6E6"/>
<path opacity="0.3" d="M61.6124 457.732L68.516 451.315L75.1968 439.151L82.1004 461.917L89.505 465.99L96.9653 459.015L104.927 477.149L112.331 484.514L119.569 480.888L126.807 483.008L133.933 481.167L141.337 448.86L148.575 461.638H155.312L163.774 470.175L170.343 448.414L177.47 432.344L185.709 417L191.945 441.607L199.35 465.934L206.587 430.168L214.326 454.942L221.118 455.444L227.131 417C227.131 417 235.872 469.896 235.705 470.063C235.482 470.286 244 417 244 417V494H61L61.6124 457.732Z" fill="#E6E6E6"/>
<path opacity="0.7" d="M301.133 178.524H300.474L201.682 180.238L245.538 92.0647L245.868 91.4712C278.051 107.431 300.408 140.405 301.133 178.524Z" fill="url(#paint0_linear_625_341)"/>
<path opacity="0.6" d="M290.252 89.1627L289.856 89.4925L201.682 179.644V53.4844V53.4185H202.012C236.239 53.4844 267.367 66.938 290.252 89.1627Z" fill="url(#paint1_linear_625_341)"/>
<path opacity="0.3" d="M100.253 241.834L100.781 241.439L203.001 178.392L173.786 294.791L173.588 295.715L173.456 295.649C141.735 287.735 116.213 267.62 100.253 241.834Z" fill="url(#paint2_linear_625_341)"/>
<g opacity="0.75">
<path opacity="0.75" d="M51.4927 370.031H50.9355V375.045H51.4927V370.031Z" fill="white"/>
<path opacity="0.75" d="M57.6208 370.031H57.0637V375.045H57.6208V370.031Z" fill="white"/>
<path opacity="0.75" d="M63.749 370.031H63.1919V375.045H63.749V370.031Z" fill="white"/>
<path opacity="0.75" d="M69.8214 370.031H69.2643V375.045H69.8214V370.031Z" fill="white"/>
<path opacity="0.75" d="M75.9496 370.031H75.3925V375.045H75.9496V370.031Z" fill="white"/>
<path opacity="0.75" d="M82.0777 370.031H81.5206V375.045H82.0777V370.031Z" fill="white"/>
<path opacity="0.75" d="M88.2059 370.031H87.6488V375.045H88.2059V370.031Z" fill="white"/>
<path opacity="0.75" d="M94.2784 370.031H93.7213V375.045H94.2784V370.031Z" fill="white"/>
<path opacity="0.75" d="M100.406 370.031H99.8494V375.045H100.406V370.031Z" fill="white"/>
<path opacity="0.75" d="M106.535 370.031H105.978V375.045H106.535V370.031Z" fill="white"/>
<path opacity="0.75" d="M112.663 370.031H112.106V375.045H112.663V370.031Z" fill="white"/>
<path opacity="0.75" d="M118.735 370.031H118.178V375.045H118.735V370.031Z" fill="white"/>
<path opacity="0.75" d="M124.864 370.031H124.306V375.045H124.864V370.031Z" fill="white"/>
<path opacity="0.75" d="M130.992 370.031H130.435V375.045H130.992V370.031Z" fill="white"/>
<path opacity="0.75" d="M137.12 370.031H136.563V375.045H137.12V370.031Z" fill="white"/>
<path opacity="0.75" d="M143.192 370.031H142.635V375.045H143.192V370.031Z" fill="white"/>
<path opacity="0.75" d="M149.321 370.031H148.763V375.045H149.321V370.031Z" fill="white"/>
<path opacity="0.75" d="M155.449 370.031H154.891V375.045H155.449V370.031Z" fill="white"/>
<path opacity="0.75" d="M161.577 370.031H161.02V375.045H161.577V370.031Z" fill="white"/>
<path opacity="0.75" d="M167.649 370.031H167.092V375.045H167.649V370.031Z" fill="white"/>
<path opacity="0.75" d="M173.777 370.031H173.22V375.045H173.777V370.031Z" fill="white"/>
<path opacity="0.75" d="M179.906 370.031H179.349V375.045H179.906V370.031Z" fill="white"/>
<path opacity="0.75" d="M186.034 370.031H185.477V375.045H186.034V370.031Z" fill="white"/>
<path opacity="0.75" d="M192.106 370.031H191.549V375.045H192.106V370.031Z" fill="white"/>
<path opacity="0.75" d="M198.234 370.031H197.677V375.045H198.234V370.031Z" fill="white"/>
<path opacity="0.75" d="M204.363 370.031H203.805V375.045H204.363V370.031Z" fill="white"/>
<path opacity="0.75" d="M210.491 370.031H209.934V375.045H210.491V370.031Z" fill="white"/>
<path opacity="0.75" d="M216.619 370.031H216.062V375.045H216.619V370.031Z" fill="white"/>
<path opacity="0.75" d="M222.691 370.031H222.134V375.045H222.691V370.031Z" fill="white"/>
<path opacity="0.75" d="M228.819 370.031H228.262V375.045H228.819V370.031Z" fill="white"/>
<path opacity="0.75" d="M234.948 370.031H234.391V375.045H234.948V370.031Z" fill="white"/>
<path opacity="0.75" d="M241.076 370.031H240.519V375.045H241.076V370.031Z" fill="white"/>
<path opacity="0.75" d="M247.148 370.031H246.591V375.045H247.148V370.031Z" fill="white"/>
<path opacity="0.75" d="M253.276 370.031H252.719V375.045H253.276V370.031Z" fill="white"/>
<path opacity="0.75" d="M259.405 370.031H258.847V375.045H259.405V370.031Z" fill="white"/>
<path opacity="0.75" d="M265.533 370.031H264.976V375.045H265.533V370.031Z" fill="white"/>
<path opacity="0.75" d="M271.605 370.031H271.048V375.045H271.605V370.031Z" fill="white"/>
<path opacity="0.75" d="M277.733 370.031H277.176V375.045H277.733V370.031Z" fill="white"/>
<path opacity="0.75" d="M283.862 370.031H283.304V375.045H283.862V370.031Z" fill="white"/>
<path opacity="0.75" d="M289.99 370.031H289.433V375.045H289.99V370.031Z" fill="white"/>
<path opacity="0.75" d="M296.062 370.031H295.505V375.045H296.062V370.031Z" fill="white"/>
<path opacity="0.75" d="M302.19 370.031H301.633V375.045H302.19V370.031Z" fill="white"/>
<path opacity="0.75" d="M308.318 370.031H307.761V375.045H308.318V370.031Z" fill="white"/>
<path opacity="0.75" d="M314.447 370.031H313.89V375.045H314.447V370.031Z" fill="white"/>
<path opacity="0.75" d="M320.519 370.031H319.962V375.045H320.519V370.031Z" fill="white"/>
<path opacity="0.75" d="M326.647 370.031H326.09V375.045H326.647V370.031Z" fill="white"/>
<path opacity="0.75" d="M332.775 370.031H332.218V375.045H332.775V370.031Z" fill="white"/>
<path opacity="0.75" d="M338.904 370.031H338.347V375.045H338.904V370.031Z" fill="white"/>
<path opacity="0.75" d="M344.976 370.031H344.419V375.045H344.976V370.031Z" fill="white"/>
<path opacity="0.75" d="M351.104 370.031H350.547V375.045H351.104V370.031Z" fill="white"/>
</g>
<path opacity="0.5" d="M201.682 179.513L105.067 254.958L201.682 179.513Z" stroke="#E6E6E6" stroke-width="0.468962" stroke-miterlimit="10"/>
<path d="M106.122 254.958C106.122 255.552 105.661 256.013 105.067 256.013C104.474 256.013 104.012 255.552 104.012 254.958C104.012 254.365 104.474 253.903 105.067 253.903C105.661 253.903 106.122 254.365 106.122 254.958Z" fill="#E6E6E6"/>
<path d="M231.887 172.654V160.123H225.622V153.858H213.157V147.593H194.428V153.858H181.964V160.123H175.698V172.654H169.433V191.317H175.698V203.781H181.964V210.047H194.428V216.312H213.157V210.047H225.622V203.781H231.887V191.317H238.152V172.654H231.887ZM188.229 172.654H194.494V178.919H188.229V172.654ZM219.357 191.383H213.091V197.648H206.826V203.913H200.561V197.582H188.097V191.317H213.026V185.052H194.296V178.853H213.026V185.052H219.291V191.383H219.357ZM219.357 172.654H194.428V166.388H200.693V160.123H206.958V166.388H219.357V172.654Z" fill="#FDC629"/>
<path d="M35 370.564V382.492H37.3673V387.274H39.7345V389.637H39.7909H44.5254V392H44.6382H56.3054H56.5309V389.637H61.2654V387.274H63.6327V382.492H66V370.564H63.6327V365.782H61.2091V363.419H56.4182V361H44.4691V363.419H39.6782V365.782H37.3109V370.564H35ZM56.5309 370.564H58.8982V372.984H56.5309V370.564ZM48.1327 382.492V384.855H52.9236V382.492H57.7145V384.855H60.0818V387.218H57.7145V384.855H52.9236V387.218H48.1327V384.855H43.3418V382.492H48.1327ZM42.1582 370.564H44.5818V372.984H42.1582V370.564ZM40.9745 384.911H43.3418V387.274H40.9745V384.911Z" fill="#FDC629"/>
<path d="M322.859 368.025V379.39H325.143V383.958H327.427V386.242H331.995V388.527H343.36V386.242H347.873V383.958H350.157V379.446H352.441V368.081H350.157V363.568H347.873V361.284H343.305V359H331.94V361.284H327.371V363.568H325.087V368.137H322.859V368.025ZM343.249 365.797H345.533V370.365H343.249V365.797ZM329.656 365.797H331.94V370.365H329.656V365.797ZM329.656 374.822H345.7V379.39H343.416V381.618H341.132V383.903H334.168V381.618H331.884V379.39H329.6V374.822H329.656Z" fill="#FDC629"/>
<path d="M206.089 368.86V365.016H204.14V363.067H200.295V361.117H190.658V363.067H186.814V365.016H184.864V368.86H182.914V378.498H184.864V382.342H186.814V384.292H190.658V386.242H200.295V384.292H204.14V382.342H206.089V378.498H208.039V368.86H206.089ZM200.295 366.966H202.245V370.81H200.295V366.966ZM188.763 366.966H190.713V370.81H188.763V366.966ZM202.357 378.498H200.407V380.393H198.457V382.342H192.552V380.448H190.602V378.554H188.652V374.654H190.602V378.498H192.552V380.448H198.457V378.498H200.407V374.654H202.357V378.498Z" fill="#FDC629"/>
<g clip-path="url(#clip0_625_341)">
<path d="M363.124 325.823L363.748 667.257L235.748 667.491L235.726 655.301" stroke="#E6E6E6" stroke-width="0.869052" stroke-miterlimit="10"/>
</g>
<defs>
<linearGradient id="paint0_linear_625_341" x1="201.675" y1="135.833" x2="301.111" y2="135.833" gradientUnits="userSpaceOnUse">
<stop stop-color="#B3B3B3" stop-opacity="0"/>
<stop offset="0.1336" stop-color="#BCBBB7" stop-opacity="0.2355"/>
<stop offset="0.355" stop-color="#D6D0C1" stop-opacity="0.6256"/>
<stop offset="0.5674" stop-color="#F4EACE"/>
<stop offset="0.8652" stop-color="#666666"/>
<stop offset="0.9944" stop-color="#808080"/>
</linearGradient>
<linearGradient id="paint1_linear_625_341" x1="201.675" y1="116.561" x2="290.23" y2="116.561" gradientUnits="userSpaceOnUse">
<stop stop-color="#B3B3B3" stop-opacity="0"/>
<stop offset="0.1336" stop-color="#BCBBB7" stop-opacity="0.2355"/>
<stop offset="0.355" stop-color="#D6D0C1" stop-opacity="0.6256"/>
<stop offset="0.5674" stop-color="#F4EACE"/>
<stop offset="0.8652" stop-color="#666666"/>
<stop offset="0.9944" stop-color="#808080"/>
</linearGradient>
<linearGradient id="paint2_linear_625_341" x1="188.253" y1="237.033" x2="106.561" y2="216.568" gradientUnits="userSpaceOnUse">
<stop stop-color="#F9D45D"/>
<stop offset="0.1716" stop-color="#F0D272" stop-opacity="0.8284"/>
<stop offset="0.7344" stop-color="#D6CEB3" stop-opacity="0.2656"/>
<stop offset="1" stop-color="#CCCCCC" stop-opacity="0"/>
</linearGradient>
<clipPath id="clip0_625_341">
<rect width="373.379" height="128.52" fill="white" transform="matrix(0.00182802 0.999998 0.999998 -0.00182802 235.124 326.057)"/>
</clipPath>
</defs>
</svg>
