<svg width="37" height="38" viewBox="0 0 37 38" fill="none" xmlns="http://www.w3.org/2000/svg">
<path fill-rule="evenodd" clip-rule="evenodd" d="M4 0.160156C1.79086 0.160156 0 1.95102 0 4.16016V33.1602C0 35.3693 1.79086 37.1602 4 37.1602H33C35.2091 37.1602 37 35.3693 37 33.1602V4.16016C37 1.95102 35.2091 0.160156 33 0.160156H4ZM8.33419 29.0745H13.0568V14.984H8.33419V29.0745ZM10.664 13.0583H10.6902C12.3379 13.0583 13.3664 11.9832 13.3664 10.6315C13.366 10.2948 13.2956 9.96172 13.1596 9.65331C13.0235 9.3449 12.8249 9.06779 12.576 8.83941C12.3272 8.61102 12.0335 8.43629 11.7135 8.32619C11.3935 8.21609 11.054 8.17299 10.7165 8.19962C9.0898 8.19962 8.04034 9.24337 8.04034 10.6315C8.03938 10.9662 8.10803 11.2974 8.24197 11.6044C8.37592 11.9114 8.57226 12.1875 8.81866 12.4154C9.06506 12.6433 9.35619 12.8181 9.67376 12.9287C9.99133 13.0393 10.3285 13.0834 10.664 13.0583ZM25.3985 29.0745H30.1211H30.1316V20.9855C30.1316 16.6592 27.7965 14.65 24.6796 14.65C23.8231 14.6164 22.9735 14.8152 22.222 15.2253C21.4704 15.6353 20.8453 16.241 20.4135 16.9775V14.984H15.6909C15.7487 16.3252 15.6909 29.0745 15.6909 29.0745H20.4135V21.1943C20.3953 20.8069 20.4487 20.4196 20.571 20.0514C20.7502 19.5529 21.0797 19.1215 21.5145 18.8161C21.9492 18.5107 22.4682 18.3461 23.0005 18.3448C24.7111 18.3448 25.3985 19.6339 25.3985 21.523V29.0745Z" fill="#242424"/>
</svg>
