<svg width="312" height="113" viewBox="0 0 312 113" fill="none" xmlns="http://www.w3.org/2000/svg">
<g clip-path="url(#clip0_625_142)">
<path d="M307.56 100.5C305.17 100.5 303.56 101.67 303.56 103.5C303.56 107.63 310.04 106.02 310.03 109.05C310.03 110.15 309.03 110.82 307.32 110.82C305.884 110.778 304.516 110.196 303.49 109.19L302.9 110.38C304.099 111.497 305.672 112.125 307.31 112.14C309.78 112.14 311.46 110.9 311.46 108.98C311.46 104.8 305 106.35 305 103.39C305 102.39 306 101.85 307.46 101.85C308.59 101.878 309.689 102.225 310.63 102.85L311.19 101.61C310.1 100.914 308.834 100.543 307.54 100.54L307.56 100.5ZM299.39 101.86V100.59H291.58V112.11H299.58V110.86H292.86V106.86H298.67V105.6H292.86V101.81L299.39 101.86ZM279.32 107.21V101.86H282.38C284.47 101.86 285.66 102.75 285.66 104.49C285.66 106.23 284.47 107.21 282.38 107.21H279.32ZM285.53 112.11H287.04L284.34 108.19C285.133 107.958 285.822 107.462 286.291 106.782C286.761 106.103 286.983 105.283 286.92 104.46C286.92 102 285.26 100.59 282.38 100.59H278.01V112.11H279.32V108.47H282.38C282.65 108.47 282.9 108.47 283.15 108.47L285.53 112.11ZM267.73 101.77C268.623 101.799 269.488 102.091 270.217 102.609C270.945 103.127 271.505 103.848 271.826 104.683C272.147 105.517 272.216 106.427 272.023 107.3C271.83 108.173 271.384 108.969 270.741 109.59C270.098 110.211 269.287 110.629 268.408 110.791C267.529 110.954 266.622 110.854 265.799 110.504C264.977 110.154 264.275 109.57 263.783 108.824C263.29 108.078 263.029 107.204 263.03 106.31C263.038 105.703 263.166 105.102 263.407 104.545C263.648 103.987 263.997 103.482 264.434 103.06C264.871 102.638 265.387 102.307 265.953 102.085C266.519 101.864 267.123 101.757 267.73 101.77ZM267.73 100.52C266.589 100.557 265.484 100.93 264.554 101.592C263.623 102.253 262.908 103.174 262.498 104.24C262.088 105.305 262.001 106.468 262.247 107.583C262.494 108.697 263.064 109.715 263.886 110.508C264.707 111.301 265.744 111.834 266.867 112.041C267.99 112.248 269.149 112.119 270.199 111.671C271.249 111.224 272.144 110.476 272.772 109.523C273.4 108.569 273.733 107.452 273.73 106.31C273.722 105.534 273.56 104.767 273.254 104.055C272.947 103.342 272.501 102.697 271.943 102.158C271.384 101.62 270.724 101.197 270.001 100.916C269.278 100.635 268.506 100.5 267.73 100.52ZM249.05 101.82H252.36C253.554 101.82 254.698 102.294 255.542 103.138C256.386 103.982 256.86 105.127 256.86 106.32C256.86 107.514 256.386 108.658 255.542 109.502C254.698 110.346 253.554 110.82 252.36 110.82H249L249.05 101.82ZM247.74 100.55V112.07H252.34C253.096 112.073 253.846 111.928 254.546 111.641C255.246 111.355 255.883 110.933 256.42 110.401C256.958 109.868 257.385 109.235 257.677 108.537C257.97 107.84 258.122 107.091 258.125 106.335C258.128 105.579 257.983 104.829 257.696 104.129C257.41 103.429 256.988 102.792 256.456 102.255C255.923 101.718 255.29 101.291 254.592 100.998C253.895 100.706 253.147 100.553 252.39 100.55H247.74ZM240.87 107.89H235.7L238.27 102.05L240.87 107.89ZM241.43 109.16L242.71 112.07H244.14L238.99 100.55H237.63L232.47 112.07H233.86L235.15 109.16H241.43ZM228.9 100.55H227.59V112.07H228.9V100.55ZM219.27 100.55C218.488 100.514 217.706 100.637 216.973 100.911C216.239 101.185 215.568 101.605 215.001 102.145C214.433 102.684 213.981 103.333 213.671 104.052C213.361 104.771 213.199 105.546 213.195 106.329C213.192 107.112 213.347 107.888 213.651 108.61C213.955 109.331 214.402 109.984 214.965 110.529C215.527 111.073 216.195 111.499 216.926 111.779C217.657 112.059 218.437 112.189 219.22 112.16C220.818 112.127 222.346 111.495 223.5 110.39L222.69 109.49C221.77 110.367 220.551 110.86 219.28 110.87C218.665 110.899 218.051 110.803 217.475 110.587C216.898 110.372 216.371 110.042 215.926 109.617C215.481 109.192 215.126 108.681 214.884 108.115C214.642 107.55 214.517 106.94 214.517 106.325C214.517 105.709 214.642 105.1 214.884 104.535C215.126 103.969 215.481 103.458 215.926 103.033C216.371 102.608 216.898 102.278 217.475 102.063C218.051 101.847 218.665 101.751 219.28 101.78C219.916 101.783 220.546 101.913 221.131 102.162C221.716 102.411 222.246 102.774 222.69 103.23L223.48 102.23C222.339 101.159 220.835 100.559 219.27 100.55ZM208.95 112.1V100.58H207.66V109.85L200.75 100.58H199.39V112.1H200.7V102.85L207.61 112.1H208.95ZM194.95 101.85V100.58H187.15V112.1H195.15V110.85H188.44V106.85H194.26V105.59H188.46V101.8L194.95 101.85ZM182.1 100.58H180.79V107.36C180.855 107.858 180.814 108.364 180.668 108.845C180.522 109.326 180.275 109.77 179.944 110.147C179.612 110.525 179.204 110.827 178.747 111.035C178.289 111.242 177.792 111.349 177.29 111.349C176.788 111.349 176.291 111.242 175.834 111.035C175.376 110.827 174.968 110.525 174.637 110.147C174.305 109.77 174.058 109.326 173.912 108.845C173.766 108.364 173.725 107.858 173.79 107.36V100.58H172.48V107.36C172.48 110.36 174.31 112.16 177.33 112.16C177.976 112.22 178.628 112.137 179.238 111.917C179.849 111.697 180.403 111.346 180.863 110.888C181.323 110.43 181.677 109.877 181.899 109.267C182.121 108.657 182.207 108.006 182.15 107.36L182.1 100.58ZM164.26 110.82V100.55H162.94V112.07H169.31V110.82H164.26ZM159.26 101.82V100.55H151.94V112.07H153.26V107.13H158.64V105.87H153.26V101.87L159.26 101.82ZM146.76 112.07V100.55H145.47V109.82L138.56 100.55H137.19V112.07H138.5V102.82L145.41 112.07H146.76ZM132 100.55H130.69V112.07H132V100.55ZM119.83 101.82V100.55H112.02V112.07H120.02V110.82H113.31V106.82H119.12V105.56H113.31V101.77L119.83 101.82ZM98.4501 101.82H101.75C102.944 101.813 104.091 102.281 104.939 103.12C105.788 103.96 106.268 105.101 106.275 106.295C106.282 107.488 105.814 108.636 104.975 109.484C104.136 110.333 102.994 110.813 101.8 110.82H98.4501V101.82ZM97.1301 100.55V112.07H101.74C103.268 112.07 104.733 111.463 105.813 110.383C106.893 109.303 107.5 107.838 107.5 106.31C107.5 104.782 106.893 103.317 105.813 102.237C104.733 101.157 103.268 100.55 101.74 100.55H97.1301ZM81.9701 110.82V100.55H80.6601V112.07H87.0301V110.82H81.9701ZM73.8001 107.89H68.6301L71.2001 102.05L73.8001 107.89ZM74.3601 109.16L75.6401 112.07H77.0701L71.9201 100.55H70.5601L65.4001 112.07H66.7901L68.0701 109.16H74.3601ZM54.4201 107.16V101.81H57.4801C59.5701 101.81 60.7601 102.7 60.7601 104.44C60.7601 106.18 59.5701 107.16 57.4801 107.16H54.4201ZM60.6401 112.06H62.1401L59.4401 108.14C60.2327 107.909 60.9216 107.412 61.3913 106.732C61.8611 106.053 62.083 105.233 62.0201 104.41C62.0201 101.95 60.3601 100.54 57.4801 100.54H53.1101V112.06H54.4201V108.42H57.4801C57.7501 108.42 58.0101 108.42 58.2601 108.42L60.6401 112.06ZM49.4801 101.81V100.54H40.6501V101.81H44.4001V112.06H45.7101V101.81H49.4801ZM36.9901 112.06V100.54H35.7001V109.81L28.7901 100.54H27.4201V112.06H28.7401V102.81L35.6501 112.06H36.9901ZM22.9901 101.81V100.54H15.1801V112.06H23.1801V110.81H16.4701V106.81H22.2601V105.55H16.4601V101.76L22.9901 101.81ZM6.89011 100.51C6.10751 100.477 5.32642 100.604 4.5938 100.881C3.86117 101.158 3.19215 101.58 2.62692 102.122C2.0617 102.665 1.61195 103.316 1.30472 104.036C0.997485 104.757 0.839111 105.532 0.839111 106.315C0.839111 107.098 0.997485 107.873 1.30472 108.594C1.61195 109.314 2.0617 109.965 2.62692 110.508C3.19215 111.05 3.86117 111.472 4.5938 111.749C5.32642 112.026 6.10751 112.153 6.89011 112.12C8.48526 112.087 10.0097 111.456 11.1601 110.35L10.3501 109.45C9.43261 110.324 8.21737 110.818 6.9501 110.83C6.33531 110.859 5.72105 110.763 5.1445 110.547C4.56795 110.332 4.04109 110.002 3.59581 109.577C3.15053 109.152 2.79607 108.641 2.55389 108.075C2.31172 107.51 2.18686 106.9 2.18686 106.285C2.18686 105.669 2.31172 105.06 2.55389 104.495C2.79607 103.929 3.15053 103.418 3.59581 102.993C4.04109 102.568 4.56795 102.238 5.1445 102.023C5.72105 101.807 6.33531 101.711 6.9501 101.74C7.58453 101.745 8.21168 101.876 8.79527 102.124C9.37887 102.373 9.90732 102.736 10.3501 103.19L11.1401 102.19C9.99912 101.119 8.49518 100.519 6.9301 100.51" fill="black"/>
<path d="M-7.62939e-05 45.1899C-7.62939e-05 29.4899 12.7099 17.4099 29.2299 17.4099C36.5104 17.6715 43.4623 20.5061 48.8499 25.4099L40.7599 35.81C37.4999 32.81 33.1799 30.9099 29.2699 30.9099C21.0999 30.9099 14.2699 37.13 14.2699 45.26C14.2699 53.39 21.3799 59.54 28.9499 59.54C33.3899 59.54 37.3799 57.4401 40.7999 54.3801L48.7999 65.0701C43.3973 70.0906 36.2951 72.8808 28.9199 72.8801C13.9199 72.8801 -0.0800781 61.8199 -0.0800781 45.1599" fill="#12100B"/>
<path d="M68.7299 52.77V73.12H54.6399V5.04L68.7299 0V52.77Z" fill="#12100B"/>
<path d="M74.97 45.25C74.97 29.32 87.61 17.25 104.1 17.25C120.59 17.25 133.23 29.33 133.23 45.25C133.23 61.17 120.59 73.0701 104.07 73.0701C87.55 73.0701 74.97 61.07 74.97 45.25ZM118.97 45.1599C118.97 36.9599 112.52 30.6401 104.09 30.6401C95.66 30.6401 89.26 36.9599 89.26 45.1599C89.26 53.3599 95.71 59.6101 104.14 59.6101C112.57 59.6101 119.02 53.3199 119.02 45.1599" fill="#12100B"/>
<path d="M169.26 21.3H194.58V7.53001L208.7 2.53001V21.3401H223.7V34.5H208.7V54.9599C208.725 55.9506 208.945 56.9266 209.35 57.8313C209.754 58.736 210.334 59.5515 211.056 60.2304C211.777 60.9094 212.627 61.4385 213.555 61.7868C214.482 62.1352 215.47 62.296 216.46 62.26V75.6599C204.38 75.6599 194.55 67.11 194.55 54.99V34.5H183.31V52.5C183.31 64.68 173.44 73.27 161.31 73.27C149.18 73.27 139.31 64.68 139.31 52.5V21.3701H153.46V52.4699C153.49 53.4624 153.715 54.4393 154.124 55.3442C154.533 56.2491 155.116 57.0642 155.841 57.7427C156.566 58.4211 157.418 58.9497 158.348 59.2976C159.278 59.6455 160.268 59.806 161.26 59.77C165.26 59.77 169.12 56.7699 169.12 52.4299V21.3301L169.26 21.3Z" fill="#12100B"/>
<path d="M183.32 21.3H169.13V34.47H183.32V21.3Z" fill="white"/>
</g>
<defs>
<clipPath id="clip0_625_142">
<rect width="311.48" height="112.13" fill="white"/>
</clipPath>
</defs>
</svg>
