<svg width="59" height="20" viewBox="0 0 59 20" fill="none" xmlns="http://www.w3.org/2000/svg">
<g clip-path="url(#clip0_625_97)">
<path d="M0 11.953C0 7.79907 3.34934 4.60352 7.71122 4.60352C9.51472 4.63064 11.4535 5.42243 12.886 6.72829L10.7501 9.47952C9.89087 8.69677 8.75338 8.18786 7.72024 8.18786C5.56635 8.18786 3.76801 9.83343 3.76801 11.984C3.76801 14.1605 5.64365 15.7621 7.64166 15.7621C8.81393 15.7621 9.86382 15.2054 10.7669 14.3956L12.8821 17.2204C11.4567 18.5482 9.58336 19.2864 7.63779 19.2871C3.69072 19.2832 0 16.3589 0 11.953Z" fill="white"/>
<path d="M18.1303 13.9576V19.34H14.4138V1.3317L18.1303 0V13.9576Z" fill="white"/>
<path d="M19.7754 11.9697C19.7754 7.75635 23.1093 4.56079 27.4596 4.56079C31.8098 4.56079 35.145 7.75635 35.145 11.9697C35.145 16.1495 31.8098 19.3322 27.4518 19.3322C23.0938 19.3322 19.7754 16.1547 19.7754 11.9697ZM31.3847 11.9439C31.3847 9.77521 29.683 8.1038 27.4596 8.1038C25.2361 8.1038 23.5357 9.77521 23.5357 11.9439C23.5357 14.1126 25.2374 15.7659 27.4596 15.7659C29.6817 15.7659 31.3847 14.1035 31.3847 11.9439Z" fill="white"/>
<path d="M51.3263 5.63279V1.99161L55.0518 0.659912V5.63279H59.0001V9.12026H55.0518V14.5297C55.0518 15.6922 56.045 16.4672 57.0987 16.4672L57.1077 20.0102C53.9194 20.0102 51.3275 17.7498 51.3275 14.5439V9.11639H48.2358V5.62891L51.3263 5.63279Z" fill="white"/>
<path d="M44.6132 9.0247V13.8594C44.6132 15.0089 43.5826 15.7969 42.5379 15.7969C41.4931 15.7969 40.4767 15.0219 40.4767 13.8594V5.63281H36.7371V13.8684C36.7371 17.0898 39.3418 19.3618 42.5469 19.3618C45.752 19.3618 48.3554 17.0898 48.3554 13.8684V9.0247H44.6132Z" fill="white"/>
<path d="M44.6106 9.11648H48.3554V5.63159V5.63288H44.6132V9.11648H44.6106Z" fill="#FFC62F"/>
</g>
<defs>
<clipPath id="clip0_625_97">
<rect width="59" height="20" fill="white"/>
</clipPath>
</defs>
</svg>
