<svg width="24" height="21" viewBox="0 0 24 21" fill="none" xmlns="http://www.w3.org/2000/svg">
<path d="M23.8515 2.98275C23.081 3.32311 22.2705 3.55947 21.4403 3.68586C21.8277 3.61911 22.4022 2.8982 22.6329 2.60895C22.9905 2.16721 23.2623 1.65972 23.4337 1.11372C23.4337 1.06922 23.4729 1.01582 23.4337 0.984673C23.4142 0.974511 23.3925 0.969215 23.3706 0.969215C23.3487 0.969215 23.327 0.974511 23.3075 0.984673C22.4021 1.482 21.4382 1.85886 20.4393 2.10609C20.4051 2.11736 20.3684 2.11832 20.3337 2.10885C20.299 2.09938 20.2676 2.07988 20.2434 2.05269C20.1671 1.95904 20.0826 1.87265 19.991 1.79458C19.5791 1.42207 19.11 1.12138 18.6026 0.904572C17.9251 0.631702 17.1963 0.517652 16.4699 0.570817C15.7647 0.620701 15.0771 0.819177 14.4505 1.15378C13.8232 1.49013 13.2693 1.95343 12.8227 2.51549C12.3589 3.09904 12.0261 3.77962 11.8478 4.50912C11.6988 5.20422 11.6855 5.92254 11.8086 6.6229C11.8086 6.7386 11.8086 6.7564 11.7085 6.7386C7.76089 6.1423 4.49663 4.70048 1.8504 1.61658C1.73289 1.48308 1.67195 1.48308 1.5762 1.61658C0.418476 3.39661 0.979929 6.2491 2.44667 7.65087C2.63915 7.84226 2.84107 8.02346 3.05165 8.19377C2.38856 8.14445 1.74185 7.95985 1.14967 7.65087C1.03651 7.57522 0.975577 7.61972 0.966872 7.75322C0.960112 7.94512 0.970309 8.13725 0.997339 8.32728C1.11053 9.23317 1.45655 10.0922 2.00015 10.8168C2.54374 11.5415 3.26549 12.1059 4.09186 12.4525C4.29621 12.5419 4.5092 12.609 4.7273 12.6527C4.11212 12.7756 3.48147 12.7951 2.86015 12.7106C2.72522 12.6839 2.67299 12.7506 2.72522 12.8841C3.54346 15.1715 5.33663 15.8523 6.64234 16.2395C6.82079 16.2706 6.99488 16.2706 7.17333 16.3151C7.17333 16.3151 7.15156 16.3151 7.14286 16.3463C6.70762 17.0316 5.17995 17.5389 4.47052 17.7926C3.16906 18.2685 1.78226 18.4506 0.405419 18.3266C0.187801 18.2954 0.144278 18.2954 0.0833447 18.3266C0.0224118 18.3577 0.0833447 18.4156 0.144278 18.4734C0.422828 18.6603 0.705731 18.8294 1.01475 18.9896C1.87829 19.4581 2.78888 19.8296 3.73062 20.0977C8.6096 21.4772 14.1066 20.4626 17.7669 16.7423C20.6439 13.8187 21.6536 9.7869 21.6536 5.75069C21.6536 5.59494 21.8364 5.50594 21.9452 5.42584C22.6726 4.84615 23.3133 4.16104 23.8472 3.39216C23.9304 3.28163 23.9721 3.14427 23.9647 3.005C23.9429 2.916 23.9516 2.93825 23.8515 2.98275Z" fill="#FFC62F"/>
</svg>
